<?xml version="1.0" encoding="UTF-8" standalone="no" ?>
<COLLADA xmlns="http://www.collada.org/2005/11/COLLADASchema" version="1.4.1">
  <asset>
    <contributor>
      <author>Assimp</author>
      <authoring_tool>THREE.GLTFExporter</authoring_tool>
    </contributor>
    <created>2026-03-17T18:13:20</created>
    <modified>2026-03-17T18:13:20</modified>
    <unit name="meter" meter="1" />
    <up_axis>Y_UP</up_axis>
  </asset>
  <library_images>
  </library_images>
  <library_effects>
    <effect id="PaintW-WEnamelWGlossyWeGreenf-fx" name="Paint - Enamel Glossy (Green)">
      <profile_COMMON>
        <technique sid="standard">
          <phong>
            <emission>
              <color sid="emission">0   0   0   1</color>
            </emission>
            <diffuse>
              <color sid="diffuse">0.266666681   0.588235319   0.282352954   1</color>
            </diffuse>
            <shininess>
              <float sid="shininess">200</float>
            </shininess>
            <transparency>
              <float sid="transparency">1</float>
            </transparency>
          </phong>
        </technique>
      </profile_COMMON>
    </effect>
    <effect id="PaintW-WEnamelWGlossyWeGreenf_1-fx" name="Paint - Enamel Glossy (Green)">
      <profile_COMMON>
        <technique sid="standard">
          <phong>
            <emission>
              <color sid="emission">0   0   0   1</color>
            </emission>
            <diffuse>
              <color sid="diffuse">0.266666681   0.588235319   0.282352954   1</color>
            </diffuse>
            <shininess>
              <float sid="shininess">200</float>
            </shininess>
            <transparency>
              <float sid="transparency">1</float>
            </transparency>
          </phong>
        </technique>
      </profile_COMMON>
    </effect>
    <effect id="material_2-fx" name="">
      <profile_COMMON>
        <technique sid="standard">
          <phong>
            <emission>
              <color sid="emission">0   0   0   1</color>
            </emission>
            <diffuse>
              <color sid="diffuse">1   1   1   1</color>
            </diffuse>
            <shininess>
              <float sid="shininess">0</float>
            </shininess>
            <transparency>
              <float sid="transparency">1</float>
            </transparency>
          </phong>
        </technique>
      </profile_COMMON>
    </effect>
  </library_effects>
  <library_materials>
    <material id="PaintW-WEnamelWGlossyWeGreenf" name="Paint - Enamel Glossy (Green)">
      <instance_effect url="#PaintW-WEnamelWGlossyWeGreenf-fx"/>
    </material>
    <material id="PaintW-WEnamelWGlossyWeGreenf_1" name="Paint - Enamel Glossy (Green)">
      <instance_effect url="#PaintW-WEnamelWGlossyWeGreenf_1-fx"/>
    </material>
    <material id="material_2" name="">
      <instance_effect url="#material_2-fx"/>
    </material>
  </library_materials>
  <library_geometries>
    <geometry id="meshesQ0S" name="meshes[0]" >
      <mesh>
        <source id="meshesQ0S-positions" name="meshesQ0S-positions">
          <float_array id="meshesQ0S-positions-array" count="2109"> 100 0 1.11000001 -100 0 1.11000001 100 -0.201978981 1.09146893 0 -0.231474057 1.08559644 100 -0.408585131 1.03206503 0 -0.466777325 1.00708437 100 -0.607402802 0.929064989 0 -0.686846256 0.871976018 100 -0.784888506 0.784888506 0 -0.871976018 0.686846256 100 -0.929064989 0.607402802 0 -1.00708437 0.466777325 100 -1.03206503 0.408585131 0 -1.08559644 0.231474057 100 -1.09146893 0.201978981 0 -1.11000001 -7.45057946e-07 100 -1.11000001 0 99.7980194 -1.09146893 -0.201978981 0 -1.08559644 -0.231474057 99.5914154 -1.03206503 -0.408585131 0 -1.0320648 -0.408585668 1.64190865e-14 -0.946417928 -0.579994082 -99.5914154 -1.03206456 -0.408586204 -99.392601 -0.929064512 -0.607403636 -100 -0.201978981 1.09146893 -100 -0.408585131 1.03206503 -100 -0.607402802 0.929064989 -100 -0.784888506 0.784888506 -100 -0.929064989 0.607402802 -100 -1.03206503 0.408585131 -100 -1.09146893 0.201978981 -100 -1.11000001 0 -100 -1.11000001 -1.49011612e-06 -99.7980194 -1.09146869 -0.201980308 0 -0.829919457 -0.737111688 -99.2151108 -0.784888029 -0.784889042 0 -0.686846256 -0.871976018 -99.0709381 -0.607402384 -0.929065287 0 -0.524021447 -0.978520036 -98.9679337 -0.408584833 -1.03206515 0 -0.349764973 -1.05345356 -98.9085312 -0.201978847 -1.09146893 0 -0.172583625 -1.09650123 -98.8899994 0 -1.11000001 98.8899994 1.35935791e-16 -1.11000001 98.9085312 -0.201978981 -1.09146893 98.9679337 -0.408585131 -1.03206503 99.0709381 -0.607402802 -0.929064989 99.2151108 -0.784888506 -0.784888506 99.3925934 -0.929064989 -0.607402802 -98.8899994 0 -1.11000001 -98.8899994 0 -100 -98.9085312 0.201978847 -1.09146893 -98.9144058 0.231474057 -50 -98.9679337 0.408584833 -1.03206515 -98.9929199 0.466777325 -50 -99.0709381 0.607402384 -0.929065287 -99.1280289 0.686846256 -50 -99.2151108 0.784888029 -0.784889042 -99.3131561 0.871976018 -50 -99.392601 0.929064512 -0.607403636 -99.533226 1.00708437 -50 -99.5914154 1.03206456 -0.408586204 -99.7685242 1.08559644 -50 -99.7980194 1.09146869 -0.201980308 -100 1.11000001 -50 -100 1.11000001 -1.49011612e-06 -100.21447 1.08908367 0 -100 1.11000001 0 -98.9085312 0.201978981 -100 -98.9679337 0.408585131 -100 -99.0709381 0.607402802 -100 -99.2151108 0.784888506 -100 -99.392601 0.929064989 -100 -99.5914154 1.03206503 -100 -99.7980194 1.09146893 -100 -100 1.11000001 -100 -100.201981 1.09146893 -100 -100.231476 1.08559644 -50 -100.408585 1.03206503 -100 -100.408585 1.03206503 -50 -100.579994 0.946417928 -50 -100.424782 1.02550673 0 -100.618446 0.921751738 0 -100.737114 0.829919457 -50 -100.784889 0.784889042 0 -100.871979 0.686846256 -50 -100.921753 0.618445873 0 -100.978523 0.524021447 -50 -101.025505 0.424778968 0 -101.053452 0.349764973 -50 -101.089088 0.214469761 0 -101.096504 0.172583625 -50 -101.110001 1.35935791e-16 6.79678957e-17 -101.110001 -1.35935791e-16 -100 -101.091469 0.201978981 -100 -101.032066 0.408585131 -100 -100.92907 0.607402802 -100 -100.784889 0.784888506 -100 -100.607407 0.929064989 -100 101.080307 0.255025744 0 101.110001 0 6.79678957e-17 101.085594 0.231474057 -50 101.110001 0 -100 101.091469 0.201978981 -100 101.032066 0.408585131 -100 101.007088 0.466777325 -50 100.992813 0.496407092 0 100.917763 0.62435174 0 100.871979 0.686846256 -50 100.82341 0.744376898 0 100.686844 0.871976018 -50 100.711151 0.852272451 0 100.583565 0.944222391 0 100.466774 1.00708437 -50 100.44426 1.01721811 0 100.297554 1.06937516 0 100.231476 1.08559644 -50 100.148003 1.10008883 0 100 1.11000001 -50 100 1.11000001 0 99.7980194 1.09146893 -0.201978981 99.7685242 1.08559644 -50 99.5914154 1.03206503 -0.408585131 99.5914154 1.03206503 -50 99.4200058 0.946417928 -50 99.5914154 1.03206503 -100 99.3925934 0.929064989 -100 100.929062 0.607402802 -100 100.784889 0.784888506 -100 100.607407 0.929064989 -100 100.408585 1.03206503 -100 100.201981 1.09146893 -100 100 1.11000001 -100 99.7980194 1.09146893 -100 99.262886 0.829919457 -50 99.2151108 0.784888506 -100 99.1280212 0.686846256 -50 99.0709381 0.607402802 -100 99.0214767 0.524021447 -50 98.9679337 0.408585131 -100 98.9465485 0.349764973 -50 98.9085312 0.201978981 -100 98.9034958 0.172583625 -50 98.8899994 -1.35935791e-16 -100 98.8899994 1.35935791e-16 -1.11000001 98.9085312 0.201978981 -1.09146893 98.9679337 0.408585131 -1.03206503 99.0709381 0.607402802 -0.929064989 99.2151108 0.784888506 -0.784888506 99.3925934 0.929064989 -0.607402802 100 0.496407092 0.992814183 100.171349 0.557797015 0.944247186 100 0.62435174 0.917760789 100.172806 0.656012356 0.87857008 100 0.744376898 0.823409379 100.154167 0.744332075 0.80888927 100.156784 0.826933622 0.723670483 100.640862 0.640858769 0.640858769 100.340172 0.603666663 0.867162108 100.498901 0.631629705 0.764354467 100.640862 0.640858769 0.640858769 100.640862 0.640858769 0.640858769 100.764351 0.631629705 0.498904973 100.845924 0.700412214 0.161055729 100.867165 0.603666663 0.340171188 100.944244 0.557797015 0.171346903 100.992813 0.496407092 0 100.917763 0.62435174 0 100.82341 0.744376898 0 100.788864 0.765818357 0.152710363 100.640862 0.640858769 0.640858769 100.711151 0.852272451 0 100.723671 0.826933682 0.156785637 100.640862 0.640858769 0.640858769 100.652985 0.880635381 0.173773482 100.583565 0.944222391 0 100.580048 0.924362421 0.202982262 100.44426 1.01721811 0 100.508255 0.956509531 0.242626488 100.394508 1.0374378 0.0135273188 100.440636 0.976602256 0.290151417 100.297531 1.06625652 0.0816915557 100.183044 1.0793941 0.183041587 100.148003 1.10008883 0 100 1.11000001 0 100.297554 1.06937516 0 100 1.10008883 0.148002058 100.081688 1.0662564 0.29752937 100.360817 0.98576194 0.360813946 100.290154 0.976602256 0.440636218 100.640862 0.640858769 0.640858769 100 1.06937516 0.297551095 100 1.01721811 0.444260508 100.228401 0.947133183 0.531857848 100.640862 0.640858769 0.640858769 100 0.944222391 0.58356154 100.18222 0.896421015 0.628749013 100.640862 0.640858769 0.640858769 100 0.852272451 0.711148143 100.640862 0.640858769 0.640858769 100.640862 0.640858769 0.640858769 100.640862 0.640858769 0.640858769 100.640862 0.640858769 0.640858769 100.640862 0.640858769 0.640858769 100.640862 0.640858769 0.640858769 -100.21447 1.08908367 0 -100.171341 1.09166896 0.104885936 -100 1.11000001 0 -100.054886 1.09121978 0.195772007 -100 1.09146893 0.201978981 -100 1.03206503 0.408585131 -100.155159 1.04418802 0.343071491 -100.208046 0.995574832 0.444575638 -100.281837 1.0398401 0.267209888 -100.340126 0.986268282 0.379067421 -100.40416 1.01690471 0.186174631 -100.466827 0.959304452 0.306443572 -100.518852 0.975945711 0.102114171 -100.58477 0.915356934 0.228623137 -100.623077 0.918464601 0.0173054114 -100.691055 0.855980992 0.147770733 -100.784889 0.784889042 0 -100.741951 0.777790904 0.276855201 -100.913467 0.620118856 0.11462152 -100.77462 0.686736465 0.400575399 -100.946426 0.528235257 0.239468351 -100.789078 0.586285114 0.515486658 -100.961021 0.426869154 0.355426043 -100.786232 0.478343159 0.620584428 -100.958153 0.317944288 0.461480826 -100.765778 0.360159487 0.718311429 -100.937508 0.198684409 0.560097754 -100.726982 0.234234661 0.805440009 -100.898354 0.0716128796 0.648019731 -100.670204 0.10423144 0.878669083 -100.841064 -0.0595741756 0.721915662 -100.587166 -0.0412231199 0.941083014 -100.757271 -0.206353277 0.784897923 -100.48716 -0.180980325 0.980829418 -100.656349 -0.347383142 0.825006247 -100.374931 -0.310063183 0.99769038 -100.543106 -0.477641433 0.84202081 -100.252983 -0.427127659 0.992804885 -100.420044 -0.595771909 0.83709079 -100.054245 -0.578709841 0.945649207 -100.219498 -0.748734474 0.789505661 -100 -0.607402802 0.929064989 -100 -0.784888506 0.784888506 -100.00589 -0.866522372 0.693688929 -100 -0.929064989 0.607402802 -100.142647 -0.966452181 0.526993155 -100 -1.03206503 0.408585131 -100.275253 -1.02269316 0.332318842 -100.093605 -1.08528936 0.213271439 -100.394226 -1.03033721 0.122845829 -100.239639 -1.0836097 0.0215305239 -100.424782 -1.02550673 0 -100.21447 -1.08908367 0 -100.285355 1.072631 0.0116443122 -100.424782 1.02550673 0 -100.618446 0.921751738 0 -100.921753 0.618445873 0 -101.025505 0.424778968 0 -101.042938 0.36861977 0.092210032 -101.056908 0.271591425 0.203205541 -101.054161 0.167327747 0.304721951 -101.034401 0.0531713478 0.399118781 -100.996925 -0.068462424 0.483278334 -100.942085 -0.194035605 0.55401206 -100.861877 -0.334533602 0.614299119 -100.765274 -0.469528377 0.652691066 -100.656876 -0.594212592 0.668977499 -100.539078 -0.707287908 0.66425848 -100.347115 -0.853704751 0.618709683 -101.089088 0.214469761 0 -101.104759 0.10059128 0.038544368 -101.110001 1.35935791e-16 6.79678957e-17 -101.102272 0.00599221746 0.130650818 -101.089088 -0.214469761 0 -101.084343 -0.0975825787 0.216297626 -101.082802 -0.243021786 0.0241059605 -101.050339 -0.207941636 0.292656124 -101.053864 -0.336942852 0.0890908539 -101.000587 -0.321874946 0.35683322 -101.01152 -0.43390581 0.143708795 -100.927811 -0.449349642 0.411532044 -100.949585 -0.542393148 0.190260217 -100.840164 -0.571831226 0.446365327 -100.874992 -0.646631122 0.219905078 -100.741814 -0.684957922 0.461142093 -100.79129 -0.742907584 0.232480854 -100.634933 -0.78755188 0.456860512 -100.700333 -0.830220163 0.228837013 -100.460762 -0.920396745 0.415533781 -100.552109 -0.943277836 0.193665892 -101.025505 -0.424778968 0 -100.921753 -0.618445873 0 -100.784889 -0.784889042 0 -100.618446 -0.921751738 0 -100 -1.11000001 0 -100 -1.09146893 0.201978981 -100 -0.408585131 1.03206503 -100 -0.201978981 1.09146893 -100.062988 -0.223524243 1.08543503 -100.159981 -0.328841478 1.04803169 -100 0 1.11000001 -100.175407 -0.115608819 1.08993876 -100.278229 -0.21532698 1.05276906 -100.387047 -0.0901585594 1.03641939 -100.069084 -0.0134673174 1.10776615 -100 0.201978981 1.09146893 -100.165306 0.0972049236 1.09331 -100.049408 0.188801944 1.09270895 -100.251053 0.21702908 1.05923247 -100.12722 0.29753533 1.06178558 -100.322243 0.341737986 1.0057205 -100.191826 0.410701364 1.01322651 -100.370926 0.453199327 0.942935765 -100.236 0.511846006 0.956253111 -100.404182 0.561163962 0.868233979 -100.266182 0.609817564 0.888465643 -100.421722 0.6624915 0.784445465 -100.282097 0.701766372 0.812432408 -100.424164 0.755038083 0.694337428 -100.284309 0.785746992 0.73066467 -100.411766 0.841162443 0.59581548 -100.273056 0.863899827 0.641261816 -100.383759 0.919230163 0.489741057 -100.247643 0.934741676 0.545005441 -100 0.408585131 1.03206503 -100 0.607402802 0.929064989 -100 0.784888506 0.784888506 -100 0.929064989 0.607402802 -100.634117 0.839537978 0.353793114 -100.665794 0.751244783 0.473761529 -100.679817 0.653839588 0.585188091 -100.677055 0.549170971 0.687098801 -100.657219 0.434571207 0.781862199 -100.619606 0.312465042 0.866348624 -100.564552 0.186404169 0.937357068 -100.484024 0.045360513 0.997878253 -100.513748 0.887225211 0.425439596 -100.543861 0.803287029 0.539490581 -100.55719 0.710686326 0.645421088 -100.554565 0.611180484 0.74230504 -100.535706 0.502233326 0.832394302 -100.499947 0.386150002 0.912713468 -100.447609 0.266307056 0.980219364 -100.371056 0.132220343 1.03775537 -100.278862 0.00338570471 1.07439542 100.640862 0.640858769 0.640858769 100.498901 0.631629705 0.764354467 100.401993 0.569864452 0.863572776 100.340172 0.603666663 0.867162108 100.262589 0.512258708 0.949071527 100.171349 0.557797015 0.944247186 100.115761 0.441630483 1.01176155 100 0.496407092 0.992814183 100 0.255025744 1.08030641 100 0 1.11000001 100.002777 0.0428542569 1.10916901 100.03862 0.259566367 1.07853305 100.175148 0.358040243 1.03596866 100.246864 0.275829852 1.04645813 100.363037 0.385228574 0.975654721 100.42614 0.326099932 0.971680105 100.511887 0.44475472 0.878785789 100.557518 0.41010502 0.867808342 100.640862 0.640858769 0.640858769 100 -0.201978981 1.09146893 100.010017 -0.190439761 1.09349549 100.117332 -0.0644274577 1.10189962 100.225105 0.066733785 1.08488488 100.125267 0.16025269 1.09120476 100.329369 0.198535532 1.04124856 100.143837 -0.291972131 1.06120825 100 -0.408585131 1.03206503 100.04615 -0.419626564 1.02658856 100 -0.607402802 0.929064989 100.195374 -0.509090543 0.966828406 100.044632 -0.700112641 0.860203624 100.342255 -0.574862421 0.88571769 100.199913 -0.769645572 0.774454772 100.480598 -0.615971446 0.788483322 100.346169 -0.813105345 0.671660244 100.518822 -0.832917392 0.518820047 100.36042 -0.986047685 0.360423326 100.512665 -0.966312766 0.188443631 100.32473 -1.06123197 0.0208976436 100.408585 -1.03206503 0 100.201981 -1.09146893 0 100.18206 -1.07972574 0.182060942 100 -1.11000001 0 100 -1.09146893 0.201978981 100.020897 -1.06123209 0.324730426 100 -1.03206503 0.408585131 100.188446 -0.966312766 0.512668014 100.042763 -0.923022389 0.615062058 100 -0.784888506 0.784888506 100 -0.929064989 0.607402802 100.607407 -0.929064989 0 100.805229 -0.749364913 0.148858935 100.671661 -0.813105285 0.346167684 100.914825 -0.555678725 0.293960243 100.788483 -0.615971446 0.480596602 100.956635 -0.419272095 0.375709772 100.838417 -0.475686163 0.550339878 100.977531 -0.27248767 0.449757338 100.870132 -0.323740155 0.608409643 100.97628 -0.115058362 0.515501738 100.882515 -0.159804642 0.654013991 100.951324 0.0479314774 0.569899738 100.873703 0.0108911796 0.684558094 100.902763 0.210621461 0.610533714 100.8433 0.182242587 0.698380649 100.832436 0.367046744 0.635943532 100.79245 0.347965091 0.6950109 100.640862 0.640858769 0.640858769 100.784889 -0.784888506 0 100.929062 -0.607402802 0 101.009308 -0.45192346 0.0957243219 101.045036 -0.322191358 0.190226331 101.032066 -0.408585131 0 101.091469 -0.201978981 0 101.093498 -0.190439761 0.010018344 101.110001 0 6.79678957e-17 101.101898 -0.0644274503 0.117329441 101.084885 0.0667337999 0.22510311 101.046394 -0.0380563252 0.368380815 101.009369 0.111672617 0.4481152 101.088989 0.192877784 0.0948531628 101.080307 0.255025744 0 101.044624 0.302836418 0.221693099 101.021194 0.413847297 0.13410984 100.956299 0.49097231 0.276648045 100.944244 0.557797015 0.171346903 100.867165 0.603666663 0.340171188 100.992813 0.496407092 0 100.868431 0.555551708 0.411442339 100.764351 0.631629705 0.498904973 100.640862 0.640858769 0.640858769 100.640862 0.640858769 0.640858769 100.880501 0.498363405 0.456561655 100.640862 0.640858769 0.640858769 100.878784 0.44475472 0.511887431 100.640862 0.640858769 0.640858769 100.746696 0.342034042 0.746696949 100.65123 0.360975415 0.823225081 100.640862 0.640858769 0.640858769 100.604744 0.381791145 0.848895252 100.640862 0.640858769 0.640858769 100.640862 0.640858769 0.640858769 100.469528 0.484450728 0.881447017 100.640862 0.640858769 0.640858769 100.432579 0.526802182 0.87604332 100.640862 0.640858769 0.640858769 100.640862 0.640858769 0.640858769 100.695007 0.347965091 0.792451978 100.775253 0.173421726 0.775249898 100.640862 0.640858769 0.640858769 100.862343 0.399883598 0.573205113 100.97168 0.326099962 0.42614153 100.974251 0.405919969 0.343751043 100.30809 0.448215038 0.967618108 100.239098 -0.15683502 1.07253611 100.365952 -0.232884854 1.02173626 100.283463 -0.375680894 1.00529242 100.490807 -0.288794994 0.95278728 100.420898 -0.437221736 0.92939955 100.608406 -0.323740184 0.870132089 100.550339 -0.475686222 0.838420272 100.703148 -0.493221074 0.703147531 100.643913 -0.634711921 0.643910229 100.331589 -0.0140871657 1.05922222 100.442337 -0.0804829001 1.01487124 100.551346 -0.129295573 0.9546749 100.654015 -0.159804672 0.882512331 100.747238 -0.339670688 0.747236133 100.417656 0.131513923 1.01998341 100.509331 0.0765525252 0.983270347 100.599571 0.0361461267 0.933440685 100.684555 0.0108911581 0.873705566 100.775215 -0.173712894 0.775217295 100.493889 0.274659157 0.955370843 100.564133 0.232549816 0.927242637 100.633263 0.201591969 0.889065027 100.69838 0.182242572 0.843298316 100.784889 -0.00062186172 0.784888387 101.057846 -0.184289351 0.281244695 100.947235 0.259457499 0.517227054 101.041252 0.198535547 0.329370886 101.091469 -0.201978981 -100 101.096504 -0.172583625 -50 101.091469 -0.201978981 0 101.053452 -0.349764973 -50 101.032066 -0.408585131 0 100.978523 -0.524021447 -50 100.929062 -0.607402802 0 100.871979 -0.686846256 -50 100.784889 -0.784888506 0 100.737114 -0.829919457 -50 100.607407 -0.929064989 0 100.579994 -0.946417928 -50 100.408585 -1.03206503 0 100.408585 -1.03206503 -50 100.231476 -1.08559644 -50 100.408585 -1.03206503 -100 100.201981 -1.09146893 -100 100 -1.11000001 -50 100 -1.11000001 -100 99.7980194 -1.09146893 -100 99.7685242 -1.08559644 -50 99.5914154 -1.03206503 -100 99.533226 -1.00708437 -50 99.3925934 -0.929064989 -100 99.3131561 -0.871976018 -50 99.2151108 -0.784888506 -100 99.1280212 -0.686846256 -50 99.0709381 -0.607402802 -100 98.9929123 -0.466777325 -50 98.9679337 -0.408585131 -100 98.9144058 -0.231474057 -50 98.9085312 -0.201978981 -100 98.8899994 -1.35935791e-16 -100 98.9085312 -0.201978981 -1.09146893 98.8899994 1.35935791e-16 -1.11000001 100.201981 -1.09146893 0 100 -1.11000001 0 99.7980194 -1.09146893 -0.201978981 99.5914154 -1.03206503 -0.408585131 99.3925934 -0.929064989 -0.607402802 99.2151108 -0.784888506 -0.784888506 99.0709381 -0.607402802 -0.929064989 98.9679337 -0.408585131 -1.03206503 100.607407 -0.929064989 -100 100.784889 -0.784888506 -100 100.929062 -0.607402802 -100 101.032066 -0.408585131 -100 98.9085312 -0.201978981 -100 98.8899994 -1.35935791e-16 -100 100 0 -100 98.9085312 0.201978981 -100 98.9679337 0.408585131 -100 99.0709381 0.607402802 -100 99.2151108 0.784888506 -100 99.3925934 0.929064989 -100 99.5914154 1.03206503 -100 99.7980194 1.09146893 -100 100 1.11000001 -100 100.201981 1.09146893 -100 100.408585 1.03206503 -100 100.607407 0.929064989 -100 100.784889 0.784888506 -100 100.929062 0.607402802 -100 101.032066 0.408585131 -100 101.091469 0.201978981 -100 101.110001 0 -100 101.091469 -0.201978981 -100 101.032066 -0.408585131 -100 100.929062 -0.607402802 -100 100.784889 -0.784888506 -100 100.607407 -0.929064989 -100 100.408585 -1.03206503 -100 100.201981 -1.09146893 -100 100 -1.11000001 -100 99.7980194 -1.09146893 -100 99.5914154 -1.03206503 -100 99.3925934 -0.929064989 -100 99.2151108 -0.784888506 -100 99.0709381 -0.607402802 -100 98.9679337 -0.408585131 -100 -98.9085312 -0.201978981 -100 -98.9035034 -0.172583625 -50 -98.9085312 -0.201978847 -1.09146893 -98.9465485 -0.349764973 -50 -98.9679337 -0.408584833 -1.03206515 -99.0214844 -0.524021447 -50 -99.0709381 -0.607402384 -0.929065287 -99.1280289 -0.686846256 -50 -99.2151108 -0.784888029 -0.784889042 -99.262886 -0.829919457 -50 -99.392601 -0.929064512 -0.607403636 -99.4200058 -0.946417928 -50 -99.5914154 -1.03206456 -0.408586204 -99.5914154 -1.0320648 -50 -99.7685242 -1.08559644 -50 -99.5914154 -1.03206503 -100 -99.7980194 -1.09146893 -100 -100 -1.11000001 -50 -100 -1.11000001 -100 -100.201981 -1.09146893 -100 -100.231476 -1.08559644 -50 -100.408585 -1.03206503 -100 -100.466782 -1.00708437 -50 -100.607407 -0.929064989 -100 -100.686852 -0.871976018 -50 -100.784889 -0.784888506 -100 -100.871979 -0.686846256 -50 -100.92907 -0.607402802 -100 -101.007088 -0.466777325 -50 -101.032066 -0.408585131 -100 -101.085594 -0.231474057 -50 -101.091469 -0.201978981 -100 -101.110001 -1.35935791e-16 -100 -101.089088 -0.214469761 0 -101.110001 1.35935791e-16 6.79678957e-17 -99.7980194 -1.09146869 -0.201980308 -100 -1.11000001 -1.49011612e-06 -100.21447 -1.08908367 0 -100.424782 -1.02550673 0 -100.618446 -0.921751738 0 -100.784889 -0.784889042 0 -100.921753 -0.618445873 0 -101.025505 -0.424778968 0 -100 -1.11000001 0 -99.392601 -0.929064989 -100 -99.2151108 -0.784888506 -100 -99.0709381 -0.607402802 -100 -98.9679337 -0.408585131 -100 -101.091469 -0.201978981 -100 -101.110001 -1.35935791e-16 -100 -100 0 -100 -101.091469 0.201978981 -100 -101.032066 0.408585131 -100 -100.92907 0.607402802 -100 -100.784889 0.784888506 -100 -100.607407 0.929064989 -100 -100.408585 1.03206503 -100 -100.201981 1.09146893 -100 -100 1.11000001 -100 -99.7980194 1.09146893 -100 -99.5914154 1.03206503 -100 -99.392601 0.929064989 -100 -99.2151108 0.784888506 -100 -99.0709381 0.607402802 -100 -98.9679337 0.408585131 -100 -98.9085312 0.201978981 -100 -98.8899994 0 -100 -98.9085312 -0.201978981 -100 -98.9679337 -0.408585131 -100 -99.0709381 -0.607402802 -100 -99.2151108 -0.784888506 -100 -99.392601 -0.929064989 -100 -99.5914154 -1.03206503 -100 -99.7980194 -1.09146893 -100 -100 -1.11000001 -100 -100.201981 -1.09146893 -100 -100.408585 -1.03206503 -100 -100.607407 -0.929064989 -100 -100.784889 -0.784888506 -100 -100.92907 -0.607402802 -100 -101.032066 -0.408585131 -100 -100 0.201978981 1.09146893 0 0.172583625 1.09650123 100 0.255025744 1.08030641 0 0.349764973 1.05345356 100 0.496407092 0.992814183 0 0.524021447 0.978520036 100 0.62435174 0.917760789 0 0.686846256 0.871976018 100 0.744376898 0.823409379 0 0.829919457 0.737111688 100 0.852272451 0.711148143 0 0.946417928 0.579994082 100 0.944222391 0.58356154 100 1.01721811 0.444260508 0 1.03206503 0.408585131 100 1.06937516 0.297551095 0 1.08559644 0.231474057 100 1.10008883 0.148002058 0 1.11000001 0 100 1.11000001 0 99.7980194 1.09146893 -0.201978981 0 1.08559644 -0.231474057 99.5914154 1.03206503 -0.408585131 0 1.00708437 -0.466777325 99.3925934 0.929064989 -0.607402802 0 0.871976018 -0.686846256 99.2151108 0.784888506 -0.784888506 0 0.686846256 -0.871976018 99.0709381 0.607402802 -0.929064989 0 0.466777325 -1.00708437 98.9679337 0.408585131 -1.03206503 0 0.231474057 -1.08559644 98.9085312 0.201978981 -1.09146893 -98.8899994 0 -1.11000001 98.8899994 1.35935791e-16 -1.11000001 -98.9085312 0.201978847 -1.09146893 -98.9679337 0.408584833 -1.03206515 -99.0709381 0.607402384 -0.929065287 -99.2151108 0.784888029 -0.784889042 -99.392601 0.929064512 -0.607403636 -99.5914154 1.03206456 -0.408586204 -99.7980194 1.09146869 -0.201980308 -100 1.11000001 -1.49011612e-06 -100 1.11000001 0 -100 1.09146893 0.201978981 -100 1.03206503 0.408585131 -100 0.929064989 0.607402802 -100 0.784888506 0.784888506 -100 0.607402802 0.929064989 -100 0.408585131 1.03206503 </float_array>
          <technique_common>
            <accessor count="703" offset="0" source="#meshesQ0S-positions-array" stride="3">
              <param name="X" type="float" />
              <param name="Y" type="float" />
              <param name="Z" type="float" />
            </accessor>
          </technique_common>
        </source>
        <source id="meshesQ0S-normals" name="meshesQ0S-normals">
          <float_array id="meshesQ0S-normals-array" count="2109"> 0 -1.41449777e-16 1 0 -1.41449777e-16 1 0 -0.181963056 0.983305395 0 -0.208535179 0.978014886 0 -0.368094712 0.929788291 0 -0.420520097 0.907283247 0 -0.54720974 0.836995482 0 -0.618780434 0.785564005 0 -0.707106769 0.707106769 0 -0.785564005 0.618780434 0 -0.836995482 0.54720974 0 -0.907283247 0.420520097 0 -0.929788291 0.368094712 0 -0.978014886 0.208535179 0 -0.983305395 0.181963056 -0 -1 -6.71223404e-07 -0 -1 -1.41449777e-16 -0 -0.983305395 -0.181963056 -0 -0.978014886 -0.208535179 -0 -0.929788291 -0.368094712 -0 -0.929788113 -0.368095189 -0 -0.852628767 -0.522517204 -0 -0.929787934 -0.368095696 -0 -0.836995065 -0.547210455 0 -0.181963056 0.983305395 0 -0.368094712 0.929788291 0 -0.54720974 0.836995482 0 -0.707106769 0.707106769 0 -0.836995482 0.54720974 0 -0.929788291 0.368094712 0 -0.983305395 0.181963056 -0 -1 -1.41449777e-16 -0 -1 -1.34244692e-06 -0 -0.983305156 -0.181964248 -0 -0.74767518 -0.664064586 -0 -0.707106292 -0.707107246 -0 -0.618780434 -0.785564005 -0 -0.547209382 -0.83699578 -0 -0.472091407 -0.881549597 -0 -0.368094444 -0.929788411 -0 -0.315103561 -0.949057281 -0 -0.181962922 -0.983305395 -0 -0.155480742 -0.987838924 -0 -1.41449777e-16 -1 -0 -1.41449777e-16 -1 -0 -0.181963056 -0.983305395 -0 -0.368094712 -0.929788291 -0 -0.54720974 -0.836995482 -0 -0.707106769 -0.707106769 -0 -0.836995482 -0.54720974 1 4.52639287e-15 0 1 4.52639287e-15 0 0.983305395 0.181962922 0 0.978014886 0.208535179 0 0.929788411 0.368094444 0 0.907283247 0.420520097 0 0.83699578 0.547209382 0 0.785564005 0.618780434 0 0.707107246 0.707106292 0 0.618780434 0.785564005 0 0.547210455 0.836995065 0 0.420520097 0.907283247 0 0.368095696 0.929787934 0 0.208535179 0.978014886 0 0.181964248 0.983305156 0 6.71223404e-07 1 0 1.34244692e-06 1 0 -0.193214685 0.981156528 0 1.34244692e-06 1 0 0.983305395 0.181963056 0 0.929788291 0.368094712 0 0.836995482 0.54720974 0 0.707106769 0.707106769 0 0.54720974 0.836995482 0 0.368094712 0.929788291 0 0.181963056 0.983305395 0 0 1 0 -0.181963056 0.983305395 0 -0.208535179 0.978014886 0 -0.368094712 0.929788291 0 -0.368094712 0.929788291 0 -0.522517204 0.852628767 0 -0.382682502 0.923879921 0 -0.557157338 0.830406964 0 -0.664064586 0.74767518 0 -0.707106292 0.707107246 0 -0.785564005 0.618780434 0 -0.830406189 0.55715847 0 -0.881549597 0.472091407 0 -0.923879385 0.382683754 0 -0.949057281 0.315103561 0 -0.98115623 0.193215996 0 -0.987838924 0.155480742 0 -1 -9.05278575e-15 -0 -1 -9.05278575e-15 -0 -0.983305395 0.181963056 0 -0.929788291 0.368094712 0 -0.836995482 0.54720974 0 -0.707106769 0.707106769 0 -0.54720974 0.836995482 0 0.973249018 0.229752928 0 1 -9.05278575e-15 0 0.978014886 0.208535179 0 1 -9.05278575e-15 0 0.983305395 0.181963056 0 0.929788291 0.368094712 0 0.907283247 0.420520097 0 0.89442718 0.44721359 0 0.826811552 0.562479019 0 0.785564005 0.618780434 0 0.741810262 0.670609832 0 0.618780434 0.785564005 0 0.640673995 0.767813027 0 0.525731087 0.850650787 0 0.420520097 0.907283247 0 0.400234699 0.916412652 0 0.268064052 0.963401079 0 0.208535179 0.978014886 0 0.133335188 0.991070986 0 -2.12174659e-16 1 0 -2.12174659e-16 1 0 -0.181963056 0.983305395 0 -0.208535179 0.978014886 0 -0.368094712 0.929788291 0 -0.368094712 0.929788291 0 -0.522517204 0.852628767 0 -0.368094712 0.929788291 0 -0.54720974 0.836995482 0 0.836995482 0.54720974 0 0.707106769 0.707106769 0 0.54720974 0.836995482 0 0.368094712 0.929788291 0 0.181963056 0.983305395 0 0 1 0 -0.181963056 0.983305395 0 -0.664064586 0.74767518 0 -0.707106769 0.707106769 0 -0.785564005 0.618780434 0 -0.836995482 0.54720974 0 -0.881549597 0.472091407 0 -0.929788291 0.368094712 0 -0.949057281 0.315103561 0 -0.983305395 0.181963056 0 -0.987838924 0.155480742 0 -1 4.52639287e-15 0 -1 4.52639287e-15 0 -0.983305395 0.181963056 0 -0.929788291 0.368094712 0 -0.836995482 0.54720974 0 -0.707106769 0.707106769 0 -0.54720974 0.836995482 0 4.197177e-15 0.44721359 0.89442718 0.154366583 0.502519846 0.850673139 1.06904824e-11 0.562479019 0.826811552 0.155682296 0.591002107 0.791504562 4.08048109e-11 0.670609832 0.741810262 0.13889049 0.67056942 0.728729069 0.141248316 0.744985282 0.651955426 0.577338338 0.577355325 0.577357173 0.30646053 0.543843806 0.781227112 0.449463934 0.569035769 0.688607633 0.577339888 0.577350259 0.57736063 0.577358246 0.577354074 0.577338517 0.688607633 0.569035769 0.449463934 0.762091756 0.631001949 0.145095244 0.781227112 0.543843806 0.30646053 0.850673139 0.502519846 0.154366583 0.89442718 0.44721359 0 0.826811552 0.562479019 9.93401715e-12 0.741810262 0.670609832 3.82180676e-11 0.71068567 0.689926445 0.137576908 0.577356577 0.577355921 0.577338278 0.640673995 0.767813027 3.26158761e-12 0.651955366 0.744985342 0.14124833 0.577354729 0.577357709 0.577338398 0.588271081 0.79336524 0.156552687 0.525731087 0.850650787 0 0.522563159 0.832758904 0.182866901 0.400234699 0.916412652 -1.07489616e-11 0.457886279 0.861720324 0.218582422 0.355416298 0.934628665 0.0121867731 0.396969467 0.879821837 0.26139769 0.268044323 0.960591435 0.0735959932 0.1649023 0.97242707 0.164902329 0.133335188 0.991070986 -1.21207827e-11 -2.12174659e-16 1 0 0.268064052 0.963401079 -2.93049439e-11 -2.91558756e-11 0.991070986 0.133335188 0.073595874 0.960591376 0.268044472 0.325057566 0.888073862 0.325057596 0.2613976 0.879821837 0.396969557 0.577342212 0.577362001 0.577346563 -1.40673417e-10 0.963401079 0.268064052 -4.92198018e-11 0.916412652 0.400234699 0.205764666 0.853273094 0.479151219 0.577340484 0.577361166 0.577349186 -5.15668237e-14 0.850650787 0.525731087 0.16416195 0.807586491 0.566440523 0.577339113 0.577359676 0.577351987 3.22137499e-12 0.767813027 0.640673995 0.577338398 0.577357709 0.577354729 0.577338874 0.577352762 0.5773592 0.57734853 0.577361405 0.577340901 0.577350557 0.577360511 0.577339709 0.577352703 0.577359259 0.577338874 0.577346563 0.577362001 0.577342212 -0.193214685 0.981156528 6.55381036e-14 -0.154361248 0.983485579 0.0944918394 1.34244692e-06 1 0 -0.0494484119 0.983080924 0.176371187 1.34244692e-06 0.983305395 0.181963056 1.34244692e-06 0.929788291 0.368094712 -0.139779717 0.940709949 0.309073418 -0.18742916 0.896914244 0.400518596 -0.25390631 0.93679285 0.24072963 -0.306415975 0.888529956 0.34150219 -0.364106476 0.916130364 0.167724892 -0.420564741 0.864238262 0.276075304 -0.467430085 0.87923038 0.0919947475 -0.52681762 0.824645877 0.205966786 -0.561329424 0.827445567 0.01559046 -0.62257427 0.771154046 0.13312678 -0.707106292 0.707107246 0 -0.668425024 0.700712562 0.249419093 -0.822939575 0.558665633 0.103262633 -0.697853684 0.61868149 0.360878736 -0.852636158 0.475887626 0.215737253 -0.710880578 0.528184772 0.464402407 -0.865781724 0.384566814 0.320203632 -0.708318293 0.430939794 0.559085071 -0.863196075 0.28643629 0.415748477 -0.689888835 0.324468017 0.64712739 -0.84459883 0.178994954 0.504592538 -0.654937267 0.211022213 0.725621641 -0.809328973 0.0645161048 0.583801568 -0.603789389 0.093902193 0.79159379 -0.757715344 -0.0536704287 0.650374472 -0.52897799 -0.037137948 0.847822547 -0.682222664 -0.185903847 0.707115233 -0.438878179 -0.163045332 0.883630097 -0.591302395 -0.312957764 0.74324888 -0.337777406 -0.279336214 0.898820162 -0.489280969 -0.430307597 0.758577287 -0.227912575 -0.384799689 0.894418836 -0.378415704 -0.536731482 0.754135847 -0.0488693677 -0.521360219 0.851936221 -0.19774209 -0.674535573 0.711266339 1.34244522e-06 -0.54720974 0.836995482 1.34244692e-06 -0.707106769 0.707106769 -0.00530546485 -0.780650795 0.624944985 1.34244817e-06 -0.836995482 0.54720974 -0.128511563 -0.87067765 0.474768639 1.34239758e-06 -0.929788291 0.368094712 -0.247973427 -0.921345234 0.299386352 -0.084330529 -0.977738202 0.192136422 -0.355158627 -0.928231716 0.110671923 -0.215890333 -0.976224959 0.0193968676 -0.382682502 -0.923879921 -1.59181784e-14 -0.193214685 -0.981156528 3.06430906e-14 -0.257075876 0.966334283 0.0104903718 -0.382682502 0.923879921 3.17725997e-15 -0.557157338 0.830406964 2.25111139e-15 -0.830406189 0.55715847 -6.97844441e-15 -0.923879385 0.382683754 -1.03875499e-13 -0.939582527 0.332089871 0.0830721036 -0.952165544 0.244676948 0.183068067 -0.94969058 0.15074572 0.274524271 -0.931889117 0.0479021147 0.35956645 -0.898128569 -0.0616778582 0.435385883 -0.84872365 -0.174806848 0.499109954 -0.776461542 -0.301381618 0.55342263 -0.689432025 -0.422998548 0.588010013 -0.591776371 -0.53532666 0.602682471 -0.485655338 -0.637196302 0.59843111 -0.312713265 -0.769103348 0.557396114 -0.98115623 0.193215996 -1.19877239e-13 -0.995279729 0.0906227753 0.0347246528 -1 -4.76922646e-13 4.53753815e-13 -0.993034124 0.00539839407 0.117703438 -0.98115623 -0.193215996 6.54425646e-12 -0.976882756 -0.0879122317 0.194862723 -0.975496948 -0.218938544 0.0217170827 -0.946251631 -0.187334806 0.263654143 -0.94942832 -0.303552121 0.0802620351 -0.901426256 -0.289977431 0.321471363 -0.911279619 -0.390906125 0.129467383 -0.835862398 -0.404819489 0.370749593 -0.855481565 -0.488642454 0.171405599 -0.756899953 -0.515163243 0.402130932 -0.788280547 -0.582550526 0.198112696 -0.668296397 -0.617079198 0.415443331 -0.712874472 -0.669286132 0.209442213 -0.572012126 -0.709506214 0.411586046 -0.630931795 -0.747946084 0.206159472 -0.415100753 -0.829186261 0.37435475 -0.497392356 -0.849799812 0.174473777 -0.923879385 -0.382683754 7.3024399e-12 -0.830406189 -0.55715847 -1.42230588e-13 -0.707106292 -0.707107246 -7.53562523e-14 -0.557157338 -0.830406964 -6.06360123e-14 1.34244692e-06 -1 -1.17340829e-14 1.3421751e-06 -0.983305395 0.181963056 1.34249649e-06 -0.368094712 0.929788291 1.34272113e-06 -0.181963056 0.983305395 -0.0567474216 -0.20137319 0.977869391 -0.144124061 -0.296253592 0.94417268 1.34244692e-06 -1.14146239e-16 1 -0.158025876 -0.104152091 0.981926739 -0.250657231 -0.193988279 0.948440552 -0.348692149 -0.0812239274 0.933711112 -0.0622386597 -0.0121327182 0.997987568 1.34244704e-06 0.181963056 0.983305395 -0.148919806 0.0875720009 0.984963953 -0.0445106216 0.170091838 0.984422445 -0.22616902 0.195521683 0.954263508 -0.114609756 0.268049836 0.956563592 -0.290310353 0.307872057 0.906054437 -0.17281425 0.370001227 0.912816703 -0.334163189 0.408287674 0.849491715 -0.212608144 0.461122513 0.861489296 -0.364129752 0.505553126 0.782192826 -0.239801019 0.54938519 0.800419509 -0.379930645 0.59683919 0.706707597 -0.254139423 0.632221997 0.731921136 -0.382127523 0.680214524 0.62552917 -0.25613296 0.707880199 0.658256471 -0.370958567 0.757804036 0.536770701 -0.245997787 0.778288126 0.57771337 -0.345727265 0.828135252 0.441208154 -0.223101839 0.842109621 0.490995914 1.34244692e-06 0.368094712 0.929788291 1.34244681e-06 0.54720974 0.836995482 1.34244704e-06 0.707106769 0.707106769 1.34244692e-06 0.836995482 0.54720974 -0.571278036 0.756340504 0.31873253 -0.599814177 0.676797092 0.426812172 -0.612446129 0.58904469 0.527196527 -0.60996151 0.494748622 0.619007885 -0.592090905 0.391505599 0.704380393 -0.558199286 0.281500041 0.780494273 -0.50860244 0.167931676 0.844465792 -0.436059684 0.0408653282 0.898989439 -0.462832123 0.799301982 0.383278906 -0.48996079 0.723681986 0.486027569 -0.501969635 0.640257955 0.581460416 -0.499607533 0.550613046 0.668743312 -0.482618451 0.452462465 0.749904752 -0.450398475 0.347882897 0.822264373 -0.403248012 0.239916265 0.883080542 -0.334283412 0.119117424 0.934914768 -0.251225233 0.00305018434 0.96792382 0.57734108 0.577348411 0.577361345 0.449463934 0.569035769 0.688607633 0.362153798 0.513391376 0.7779935 0.30646053 0.543843806 0.781227112 0.236568749 0.461494356 0.855019391 0.154366583 0.502519846 0.850673139 0.104290895 0.397865295 0.911496878 4.197177e-15 0.44721359 0.89442718 -1.26758785e-14 0.229752913 0.973249018 0 -1.41449777e-16 1 0.00250310777 0.0386074409 0.999251306 0.0347948819 0.23384358 0.971651435 0.15778923 0.32255879 0.933305085 0.222402677 0.24849537 0.942755044 0.327061534 0.347052753 0.878968239 0.383911312 0.293783724 0.87538749 0.461159885 0.400679916 0.791698933 0.502265394 0.36946398 0.78180933 0.577347875 0.577341437 0.577361524 2.34913367e-10 -0.181963056 0.983305395 0.00902553648 -0.171567366 0.985131025 0.105702206 -0.0580427535 0.992702425 0.20279561 0.0601205267 0.977373779 0.112850703 0.144371793 0.983067393 0.296730548 0.178860843 0.938061714 0.129583716 -0.26303795 0.956043482 1.35091383e-10 -0.368094712 0.929788291 0.0415735058 -0.378041953 0.924854577 1.52745015e-12 -0.54720974 0.836995482 0.176009655 -0.458640099 0.871016562 0.0402087979 -0.630732119 0.774958253 0.308336347 -0.517894089 0.79794383 0.180102319 -0.693374395 0.697706997 0.432970047 -0.554929256 0.710345328 0.311862946 -0.732527316 0.60509932 0.467405498 -0.750376046 0.467405468 0.32470575 -0.888331234 0.32470572 0.46186322 -0.870552063 0.169769034 0.292550057 -0.95606488 0.0188267063 0.368094712 -0.929788291 -4.84526808e-10 0.181963056 -0.983305395 1.04869023e-14 0.164018884 -0.972725868 0.164018869 -0 -1 -1.41449777e-16 0 -0.983305395 0.181963056 0.0188268498 -0.95606488 0.292549938 -4.74183415e-10 -0.929788291 0.368094712 0.169769183 -0.870552063 0.461863101 0.0385219082 -0.831551671 0.554109991 0 -0.707106769 0.707106769 -1.57549911e-11 -0.836995482 0.54720974 0.54720974 -0.836995482 -1.3180775e-11 0.725431263 -0.675103486 0.134107158 0.60509944 -0.732527316 0.311862797 0.824168503 -0.500611484 0.264829069 0.710345447 -0.554929197 0.432969898 0.861834526 -0.377722591 0.338477284 0.755333662 -0.428546101 0.495801657 0.880659461 -0.245484382 0.405186772 0.783902884 -0.291657805 0.548116744 0.879530072 -0.103656188 0.464415967 0.795056224 -0.14396815 0.589201808 0.857048452 0.0431815125 0.513423145 0.78712219 0.00981187355 0.616719007 0.813303053 0.189749062 0.55003041 0.759728253 0.164182514 0.629171789 0.749943852 0.330672741 0.572922111 0.713920712 0.313482076 0.626135945 0.577359974 0.57733953 0.577351332 0.707106769 -0.707106769 -8.27139701e-15 0.836995482 -0.54720974 9.22704404e-13 0.909286201 -0.407138228 0.0862381309 0.941476643 -0.290262491 0.171375081 0.929788291 -0.368094712 1.33085348e-10 0.983305395 -0.181963056 2.91651536e-10 0.985131025 -0.171567351 0.00902553555 1 -9.05278575e-15 0 0.992702425 -0.058042746 0.105702199 0.977373779 0.0601205416 0.202795595 0.942700267 -0.0342849791 0.331874609 0.909339726 0.100605957 0.403707385 0.981072843 0.173763767 0.0854533017 0.973249018 0.229752913 2.71179394e-14 0.941103995 0.272825599 0.199723512 0.91999805 0.372835398 0.120819673 0.861532629 0.442317396 0.249232471 0.850673139 0.502519846 0.154366583 0.781227112 0.543843806 0.30646053 0.89442718 0.44721359 0 0.782372952 0.500497043 0.370668769 0.688607633 0.569035769 0.449463934 0.577360511 0.577350259 0.577340007 0.577361524 0.577347815 0.577341497 0.793245852 0.44897604 0.411316812 0.577362061 0.577345312 0.577343464 0.791698933 0.400679946 0.461159855 0.577358186 0.577338696 0.577353895 0.672699988 0.308138788 0.672699928 0.586691439 0.325203061 0.741644204 0.577351987 0.577339232 0.577359557 0.544812202 0.343955994 0.764770508 0.577349961 0.577340186 0.57736069 0.577345848 0.577342927 0.577362001 0.423000187 0.436442077 0.79409641 0.577344 0.577344656 0.57736212 0.389713973 0.47459653 0.789228201 0.577342391 0.577346563 0.577361882 0.577353895 0.577338696 0.577358186 0.626135945 0.313482046 0.713920712 0.698423386 0.156235784 0.698423326 0.577361286 0.577340961 0.57734859 0.776882231 0.36025548 0.516400993 0.87538749 0.293783754 0.383911282 0.877703249 0.365693659 0.309685618 0.277557164 0.403797328 0.871728003 0.215405941 -0.14129281 0.966248751 0.329684883 -0.209806174 0.920483172 0.25537163 -0.338451266 0.905668855 0.44217065 -0.260175675 0.858366907 0.379185766 -0.39389345 0.837296903 0.548116922 -0.291657805 0.783902764 0.495801806 -0.428546131 0.755333543 0.633466303 -0.444343299 0.633466244 0.580099344 -0.57181251 0.580099285 0.298726737 -0.0126911402 0.954254329 0.398498595 -0.0725071207 0.914298415 0.496704936 -0.116482504 0.860067487 0.589201927 -0.143968165 0.795056164 0.673185766 -0.30600962 0.673185706 0.376268089 0.118481018 0.918904006 0.458857745 0.0689662397 0.885829091 0.540151477 0.0325640775 0.840937555 0.616719127 0.00981185399 0.78712213 0.698394001 -0.156498104 0.698393941 0.444947362 0.247440681 0.860694468 0.508224428 0.209504351 0.835353732 0.570508599 0.181614384 0.800959527 0.629171848 0.164182499 0.759728193 0.707106709 -0.000560235814 0.70710665 0.953014731 -0.166026443 0.253373593 0.853366673 0.2337455 0.465970337 0.938061714 0.178860858 0.296730518 0.983305395 -0.181963056 0 0.987838924 -0.155480742 0 0.983305395 -0.181963056 0 0.949057281 -0.315103561 0 0.929788291 -0.368094712 0 0.881549597 -0.472091407 0 0.836995482 -0.54720974 0 0.785564005 -0.618780434 0 0.707106769 -0.707106769 -8.27139701e-15 0.664064586 -0.74767518 0 0.54720974 -0.836995482 0 0.522517204 -0.852628767 0 0.368094712 -0.929788291 0 0.368094712 -0.929788291 0 0.208535179 -0.978014886 0 0.368094712 -0.929788291 0 0.181963056 -0.983305395 0 2.12174659e-16 -1 0 2.12174659e-16 -1 0 -0.181963056 -0.983305395 -0 -0.208535179 -0.978014886 -0 -0.368094712 -0.929788291 -0 -0.420520097 -0.907283247 -0 -0.54720974 -0.836995482 -0 -0.618780434 -0.785564005 -0 -0.707106769 -0.707106769 -0 -0.785564005 -0.618780434 -0 -0.836995482 -0.54720974 -0 -0.907283247 -0.420520097 -0 -0.929788291 -0.368094712 -0 -0.978014886 -0.208535179 -0 -0.983305395 -0.181963056 -0 -1 4.52639287e-15 0 -0.983305395 -0.181963056 -0 -1 4.52639287e-15 0 0.181963056 -0.983305395 1.04869023e-14 -0 -1 -1.41449777e-16 -0.181963056 -0.983305395 -0 -0.368094712 -0.929788291 -0 -0.54720974 -0.836995482 -0 -0.707106769 -0.707106769 -0 -0.836995482 -0.54720974 -0 -0.929788291 -0.368094712 -0 0.54720974 -0.836995482 0 0.707106769 -0.707106769 0 0.836995482 -0.54720974 0 0.929788291 -0.368094712 0 -0 -0 -1 -0 -0 -1 -0 -0 -1 -0 -0 -1 -0 -0 -1 -0 -0 -1 -0 -0 -1 -0 -0 -1 -0 -0 -1 -0 -0 -1 -0 -0 -1 -0 -0 -1 -0 -0 -1 -0 -0 -1 -0 -0 -1 -0 -0 -1 -0 -0 -1 -0 -0 -1 -0 -0 -1 -0 -0 -1 -0 -0 -1 -0 -0 -1 -0 -0 -1 -0 -0 -1 -0 -0 -1 -0 -0 -1 -0 -0 -1 -0 -0 -1 -0 -0 -1 -0 -0 -1 -0 -0 -1 -0 -0 -1 -0 -0 -1 0.983305395 -0.181963056 0 0.987838924 -0.155480742 0 0.983305395 -0.181962922 0 0.949057281 -0.315103561 0 0.929788411 -0.368094444 0 0.881549597 -0.472091407 0 0.83699578 -0.547209382 0 0.785564005 -0.618780434 0 0.707107246 -0.707106292 0 0.664064586 -0.74767518 0 0.547210455 -0.836995065 0 0.522517204 -0.852628767 0 0.368095696 -0.929787934 0 0.368095189 -0.929788113 0 0.208535179 -0.978014886 0 0.368094712 -0.929788291 0 0.181963056 -0.983305395 0 6.71223404e-07 -1 0 2.12174659e-16 -1 0 -0.181963056 -0.983305395 -0 -0.208535179 -0.978014886 -0 -0.368094712 -0.929788291 -0 -0.420520097 -0.907283247 -0 -0.54720974 -0.836995482 -0 -0.618780434 -0.785564005 -0 -0.707106769 -0.707106769 -0 -0.785564005 -0.618780434 -0 -0.836995482 -0.54720974 -0 -0.907283247 -0.420520097 -0 -0.929788291 -0.368094712 -0 -0.978014886 -0.208535179 -0 -0.983305395 -0.181963056 -0 -1 -9.05278575e-15 -0 -0.98115623 -0.193215996 -0 -1 -9.05278575e-15 -0 0.181964248 -0.983305156 0 1.34244692e-06 -1 0 -0.193214685 -0.981156528 -0 -0.382682502 -0.923879921 -0 -0.557157338 -0.830406964 -0 -0.707106292 -0.707107246 -0 -0.830406189 -0.55715847 -0 -0.923879385 -0.382683754 -0 1.34244692e-06 -1 -1.17340829e-14 0.54720974 -0.836995482 0 0.707106769 -0.707106769 0 0.836995482 -0.54720974 0 0.929788291 -0.368094712 0 -0 -0 -1 -0 -0 -1 -0 -0 -1 -0 -0 -1 -0 -0 -1 -0 -0 -1 -0 -0 -1 -0 -0 -1 -0 -0 -1 -0 -0 -1 -0 -0 -1 -0 -0 -1 -0 -0 -1 -0 -0 -1 -0 -0 -1 -0 -0 -1 -0 -0 -1 -0 -0 -1 -0 -0 -1 -0 -0 -1 -0 -0 -1 -0 -0 -1 -0 -0 -1 -0 -0 -1 -0 -0 -1 -0 -0 -1 -0 -0 -1 -0 -0 -1 -0 -0 -1 -0 -0 -1 -0 -0 -1 -0 -0 -1 -0 -0 -1 0 0.181963056 0.983305395 0 0.155480742 0.987838924 0 0.229752928 0.973249018 0 0.315103561 0.949057281 4.197177e-15 0.44721359 0.89442718 0 0.472091407 0.881549597 0 0.562479019 0.826811552 0 0.618780434 0.785564005 0 0.670609832 0.741810262 0 0.74767518 0.664064586 0 0.767813027 0.640673995 0 0.852628767 0.522517204 0 0.850650787 0.525731087 0 0.916412652 0.400234699 0 0.929788291 0.368094712 0 0.963401079 0.268064052 0 0.978014886 0.208535179 0 0.991070986 0.133335188 0 1 1.41449777e-16 -2.12174659e-16 1 0 0 0.983305395 -0.181963056 0 0.978014886 -0.208535179 0 0.929788291 -0.368094712 0 0.907283247 -0.420520097 0 0.836995482 -0.54720974 0 0.785564005 -0.618780434 0 0.707106769 -0.707106769 0 0.618780434 -0.785564005 0 0.54720974 -0.836995482 0 0.420520097 -0.907283247 0 0.368094712 -0.929788291 0 0.208535179 -0.978014886 0 0.181963056 -0.983305395 -0 -1.41449777e-16 -1 -0 -1.41449777e-16 -1 0 0.181962922 -0.983305395 0 0.368094444 -0.929788411 0 0.547209382 -0.83699578 0 0.707106292 -0.707107246 0 0.836995065 -0.547210455 0 0.929787934 -0.368095696 0 0.983305156 -0.181964248 0 1 -1.34244692e-06 0 1 1.41449777e-16 0 0.983305395 0.181963056 0 0.929788291 0.368094712 0 0.836995482 0.54720974 0 0.707106769 0.707106769 0 0.54720974 0.836995482 0 0.368094712 0.929788291 </float_array>
          <technique_common>
            <accessor count="703" offset="0" source="#meshesQ0S-normals-array" stride="3">
              <param name="X" type="float" />
              <param name="Y" type="float" />
              <param name="Z" type="float" />
            </accessor>
          </technique_common>
        </source>
        <source id="meshesQ0S-tex0" name="meshesQ0S-tex0">
          <float_array id="meshesQ0S-tex0-array" count="1406"> 100 1 -100 1 100 1.19622576 0 1.22425807 100 1.39245152 0 1.44851613 100 1.58867741 0 1.67277408 100 1.78490317 0 1.89703226 100 1.98112893 0 2.12129021 100 2.17735481 0 2.34554815 100 2.37358046 0 2.56980705 100 2.56980634 99.7980194 2.76603222 0 2.79406452 99.5914154 2.96225786 0 2.96225834 1.57740489e-14 3.13045144 -99.5914154 2.96225882 -99.392601 3.15848446 -100 1.19622576 -100 1.39245152 -100 1.58867741 -100 1.78490317 -100 1.98112893 -100 2.17735481 -100 2.37358046 -100 2.56980634 -100 2.56980777 -99.7980194 2.76603341 0 3.29864502 -99.2151108 3.3547101 0 3.4668386 -99.0709381 3.55093575 0 3.63503194 -98.9679337 3.74716139 0 3.80322552 -98.9085312 3.94338703 0 3.9714191 -98.8899994 4.13961267 98.8899994 4.13961267 98.9085312 3.94338679 98.9679337 3.74716115 99.0709381 3.55093527 99.2151108 3.35470939 99.3925934 3.15848374 -1.11000001 1 -100 1 -1.09146893 1.19622564 -50 1.22425807 -1.03206515 1.39245129 -50 1.44851613 -0.929065287 1.58867693 -50 1.67277408 -0.784889042 1.78490257 -50 1.89703226 -0.607403636 1.9811281 -50 2.12129021 -0.408586204 2.17735386 -50 2.34554815 -0.201980308 2.37357926 -50 2.56980562 -1.49011612e-06 2.56980467 -1.6313537e-32 2.77791166 6.79678957e-17 2.56980467 -100 1.19622576 -100 1.39245152 -100 1.58867741 -100 1.78490317 -100 1.98112893 -100 2.17735481 -100 2.37358046 -100 2.56980634 -100 2.76603222 -50 2.79406452 -100 2.96225786 -50 2.96225786 -50 3.13045144 -4.64335036e-33 2.97778463 -6.1081717e-33 3.1699028 -50 3.29864502 6.80744501e-33 3.35470891 -50 3.4668386 -9.18442977e-33 3.53951478 -50 3.63503194 3.23457254e-33 3.73163295 -50 3.80322552 9.47174961e-34 3.93150592 -50 3.9714191 -1.36818065e-32 4.13961267 -100 4.13961267 -100 3.94338679 -100 3.74716115 -100 3.55093527 -100 3.35470939 -100 3.15848374 -1.35646244e-32 1.24659503 -0 1 -50 1.22425807 -100 1 -100 1.19622576 -100 1.39245152 -50 1.44851613 -4.12264971e-34 1.47739935 -1.55270755e-33 1.60623741 -50 1.67277408 -1.60199412e-32 1.73717165 -50 1.89703226 -1.52334287e-33 1.87025356 -1.40434905e-33 2.00553656 -50 2.12129021 -1.2922765e-33 2.14307523 -1.46635133e-32 2.28292704 -50 2.34554815 -1.22279239e-33 2.42515039 -50 2.56980634 -1.36818065e-32 2.56980634 -0.201978981 2.76603222 -50 2.79406452 -0.408585131 2.96225786 -50 2.96225786 -50 3.13045144 -100 2.96225786 -100 3.15848374 -100 1.58867741 -100 1.78490317 -100 1.98112893 -100 2.17735481 -100 2.37358046 -100 2.56980634 -100 2.76603222 -50 3.29864502 -100 3.35470939 -50 3.4668386 -100 3.55093527 -50 3.63503194 -100 3.74716115 -50 3.80322552 -100 3.94338679 -50 3.9714191 -100 4.13961267 -1.11000001 4.13961267 -1.09146893 3.94338679 -1.03206503 3.74716115 -0.929064989 3.55093527 -0.784888506 3.35470939 -0.607402802 3.15848374 -1.00632989 1 -1.19575727 1 -1.0564177 1.10080791 -1.23699224 1.1030916 -1.08176994 1.20730078 -1.23699224 1.2061832 -1.23699224 1.30927479 -1.77750909 1.2061832 -1.38740325 1 -1.58130717 1 -1.77750909 1 -1.77750909 2.28864527 -1.58130717 2.4432826 -1.23699224 2.28864527 -1.38740325 2.4432826 -1.19575727 2.4432826 -1.00632989 2.4432826 -1.0564177 2.34247446 -1.08176994 2.23598194 -1.23699224 2.2113266 -1.77750909 2.2113266 -1.07740545 2.12898302 -1.23699224 2.13400769 -1.77750909 2.13400769 -1.23699224 2.05668902 -1.04258072 2.02736139 -1.23699224 1.97937024 -0.981046259 1.93530035 -1.23699224 1.90205157 -0.966733754 1.90205157 -1.23699224 1.82473278 -0.966733754 1.82473278 -0.966733754 1.7216413 -0.802397609 1.78354061 -0.696475267 1.7216413 -0.898931086 1.85423875 -0.802397609 1.659742 -0.966733754 1.61854959 -1.23699224 1.7216413 -1.23699224 1.61854959 -1.77750909 1.61854959 -0.898931086 1.58904374 -0.981046259 1.50798213 -1.23699224 1.51545799 -1.77750909 1.51545799 -1.04258072 1.41592121 -1.23699224 1.41236639 -1.77750909 1.41236639 -1.07740545 1.31429946 -1.77750909 1.30927479 -1.77750909 1.1030916 -1.77750909 1.90205157 -1.77750909 1.97937024 -1.77750909 2.05668902 -1.77750909 1.82473278 -0.504344642 2.60465431 -0.598752618 2.54119635 -0.654430985 2.78454304 -0.738950908 2.54119635 -0.783866346 2.5808382 -0.900886834 2.32265544 -0.738950908 2.29784942 -0.738950908 2.13561821 -0.598752618 2.29784942 -0.598752618 2.13561821 -0.458554298 2.29784942 -0.458554298 2.13561821 -0.318356007 2.29784942 -0.318356007 2.13561821 -0.178157702 2.29784942 -0.178157702 2.13561821 -5.80773303e-07 2.18969488 -0.178157702 1.973387 0.102238886 1.973387 -0.178157702 1.81115592 0.102238886 1.81115592 -0.178157702 1.64892471 0.102238886 1.64892471 -0.178157702 1.4866935 0.102238886 1.4866935 -0.178157702 1.32446241 0.102238886 1.32446241 -0.178157702 1.16223121 0.102238886 1.16223121 -0.178157702 1 0.102238886 1 -0.178157702 0.818241 0.102238886 0.818241 -0.178157702 0.636482 0.102238886 0.636482 -0.178157702 0.454723001 0.102238886 0.454723001 -0.178157702 0.272963941 0.102238886 0.272963941 -0.178157702 0.00858724117 0.102238886 0.00858724117 -0.183234781 -0.0560172796 -8.32757848e-07 -0.189695716 0.102238886 -0.255789518 0.183233097 -0.323374152 0.33151567 -0.255789518 0.355394661 -0.462845683 0.560792446 -0.255789518 0.560792446 -0.520166278 0.790069282 -0.255789518 0.790069282 -0.520166278 0.909116328 -0.299381495 0.791450799 -0.566933632 -0.458554298 2.54119635 -0.342247605 2.45145702 -0.172844201 2.31549215 0.172843039 2.06389785 0.342246473 1.92793286 0.33151567 1.81115592 0.33151567 1.64892471 0.33151567 1.4866935 0.33151567 1.32446241 0.33151567 1.16223121 0.33151567 1 0.33151567 0.818241 0.33151567 0.636482 0.33151567 0.454723001 0.33151567 0.272963941 0.33151567 0.00858724117 0.504343569 1.77473569 0.560792446 1.64892471 0.654429913 1.5948472 0.560792446 1.4866935 0.791451693 1.37723756 0.560792446 1.32446241 0.790069282 1.32446241 0.560792446 1.16223121 0.790069282 1.16223121 0.560792446 1 0.790069282 1 0.560792446 0.818241 0.790069282 0.818241 0.560792446 0.636482 0.790069282 0.636482 0.560792446 0.454723001 0.790069282 0.454723001 0.560792446 0.272963941 0.790069282 0.272963941 0.560792446 0.00858724117 0.790069282 0.00858724117 0.909116983 1.10968506 0.990457296 0.782988071 1.019346 0.405151427 0.990456939 0.0273150206 0.654428959 -0.784543037 0.513457298 -0.614286423 -0.35539642 0.0834543109 -0.513459146 0.234894872 -0.458554298 0.272963941 -0.318356007 0.272963941 -0.654430985 0.405151427 -0.458554298 0.454723001 -0.318356007 0.454723001 -0.318356007 0.636482 -0.598752618 0.454723001 -0.783866346 0.608856142 -0.598752618 0.636482 -0.738950908 0.636482 -0.598752618 0.818241 -0.738950908 0.818241 -0.598752618 1 -0.738950908 1 -0.598752618 1.16223121 -0.738950908 1.16223121 -0.598752618 1.32446241 -0.738950908 1.32446241 -0.598752618 1.4866935 -0.738950908 1.4866935 -0.598752618 1.64892471 -0.738950908 1.64892471 -0.598752618 1.81115592 -0.738950908 1.81115592 -0.598752618 1.973387 -0.738950908 1.973387 -0.900886834 0.867039084 -0.986900985 1.19557035 -1.01934743 1.5948472 -0.986900985 1.99412405 -0.318356007 1.973387 -0.318356007 1.81115592 -0.318356007 1.64892471 -0.318356007 1.4866935 -0.318356007 1.32446241 -0.318356007 1.16223121 -0.318356007 1 -0.318356007 0.818241 -0.458554298 1.973387 -0.458554298 1.81115592 -0.458554298 1.64892471 -0.458554298 1.4866935 -0.458554298 1.32446241 -0.458554298 1.16223121 -0.458554298 1 -0.458554298 0.818241 -0.458554298 0.636482 -1.65808117 0.850631714 -1.47342408 1 -1.33384836 0.850631714 -1.29203784 1 -1.17173195 0.850631714 -1.11383617 1 -1.00961554 0.850631714 -0.938735962 1 -0.815780103 0.723316908 -0.654518783 0.524497151 -0.685382724 0.551895142 -0.847499132 0.701263428 -1.00961554 0.701263428 -1.00961554 0.551895142 -1.17173195 0.551895142 -1.17173195 0.40179199 -1.33384836 0.402036905 -1.33384836 0.253158569 -1.65808117 0.253158569 -0.507894635 0.400788963 -0.523266315 0.400812149 -0.685382724 0.401057124 -0.847499132 0.40130204 -0.847499132 0.551895142 -1.00961554 0.401547015 -0.523266315 0.253158569 -0.343618304 0.288686574 -0.361149877 0.253158569 -0.17232807 0.183677077 -0.361149877 0.103790283 -0.108442359 0.103790283 -0.361149877 -0.0455780029 -0.108442359 -0.0455780029 -0.361149877 -0.194946289 -0.108442359 -0.194946289 -0.108442359 -0.394104004 0.144265175 -0.394103885 0.144265175 -0.593261719 0.396972686 -0.593261719 0.343256414 -0.655493021 0.502937019 -0.533717275 0.396972686 -0.394103885 0.649680257 -0.394103885 0.502937019 -0.254490614 0.396972686 -0.194946289 0.343256414 -0.132714748 0.144265175 -0.194946289 0.144265175 -0.0455780029 0.00179184787 0.0813989639 0.174903437 -0.0225137472 0.174903437 -0.765694141 -0.108442359 -0.792419434 -0.108442359 -0.593261719 -0.361149877 -0.792419434 -0.361149877 -0.593261719 -0.523266315 -0.792419434 -0.523266315 -0.593261719 -0.685382724 -0.792419434 -0.685382724 -0.593261719 -0.847499132 -0.792419434 -0.847499132 -0.593261719 -1.00961554 -0.792419434 -1.00961554 -0.593261719 -1.17173195 -0.792419434 -1.17173195 -0.593261719 -1.33384836 -0.792419434 -1.33384836 -0.593261719 -1.65808117 -0.792419434 0.00179184787 -0.869606853 -0.17232807 -0.971884966 -0.361149877 -0.991577029 -0.523266315 -0.991577029 -0.343618304 -1.07689452 -0.507894635 -1.18899679 -0.523266315 -1.18901992 -0.654518783 -1.31270504 -0.685382724 -1.18926501 -0.847499132 -1.18950987 -0.847499132 -0.991577029 -1.00961554 -0.991577029 -0.847499132 -1.38989258 -0.815780103 -1.51152468 -1.00961554 -1.38989258 -1.00961554 -1.58905005 -1.17173195 -1.58905005 -1.11383617 -1.78820777 -1.29203784 -1.78820777 -0.938735962 -1.78820777 -1.33384836 -1.58905005 -1.47342408 -1.78820777 -1.65808117 -1.78820777 -1.65808117 -1.58905005 -1.33384836 -1.38989258 -1.65808117 -1.38989258 -1.33384836 -1.19024491 -1.65808117 -0.593261719 -1.33384836 -0.394104004 -1.33384836 -0.0455780029 -1.65808117 -0.0455780029 -1.33384836 0.103790283 -1.65808117 0.103790283 -1.65808117 0.402526855 -1.33384836 0.551895142 -1.65808117 0.551895142 -1.33384836 0.701263428 -1.65808117 0.701263428 -1.65808117 -0.194946289 -1.33384836 -0.194946289 -1.17173195 -0.394104004 -1.65808117 -0.991577029 -1.33384836 -0.991577029 -1.17173195 -1.18999982 -1.17173195 -1.38989258 -1.17173195 0.701263428 -0.685382724 0.253158569 -0.685382724 0.103790283 -0.523266315 0.103790283 -0.685382724 -0.0455780029 -0.523266315 -0.0455780029 -0.685382724 -0.194946289 -0.523266315 -0.194946289 -0.523266315 -0.394104004 -0.361149877 -0.394104004 -0.847499132 0.253158569 -0.847499132 0.103790283 -0.847499132 -0.0455780029 -0.847499132 -0.194946289 -0.685382724 -0.394104004 -1.00961554 0.253158569 -1.00961554 0.103790283 -1.00961554 -0.0455780029 -1.00961554 -0.194946289 -0.847499132 -0.394104004 -1.17173195 0.253158569 -1.17173195 0.103790283 -1.17173195 -0.0455780029 -1.17173195 -0.194946289 -1.00961554 -0.394104004 -0.685382724 -0.991577029 -1.17173195 -0.991577029 -1.00961554 -1.18975496 -100 0.803774238 -50 0.831806481 -1.24787071e-32 0.803774238 -50 0.663612962 -1.12756092e-32 0.607548416 -50 0.495419383 -1.00725106e-32 0.411322653 -50 0.327225864 -8.86941271e-33 0.215096831 -50 0.159032345 -7.66631408e-33 0.018871069 -50 -0.0091612339 -6.46321545e-33 -0.177354693 -50 -0.177354693 -50 -0.345548272 -100 -0.177354693 -100 -0.373580575 -50 -0.569806337 -100 -0.569806337 -100 -0.7660321 -50 -0.794064403 -100 -0.962257862 -50 -1.01832247 -100 -1.15848374 -50 -1.24258041 -100 -1.35470939 -50 -1.4668386 -100 -1.55093527 -50 -1.69109654 -100 -1.74716115 -50 -1.91535449 -100 -1.94338679 -100 -2.13961267 -1.09146893 -1.94338679 -1.11000001 -2.13961267 -5.26011718e-33 -0.373580575 -2.03903687e-16 -0.569806337 -0.201978981 -0.7660321 -0.408585131 -0.962257862 -0.607402802 -1.15848374 -0.784888506 -1.35470939 -0.929064989 -1.55093527 -1.03206503 -1.74716115 -100 0.018871069 -100 0.215096831 -100 0.411322653 -100 0.607548416 1.09146893 1.20197892 1.11000001 1 0 1 1.09146893 0.798021019 1.03206503 0.591414869 0.929064989 0.392597198 0.784888506 0.215111494 0.607402802 0.0709350109 0.408585131 -0.0320650339 0.201978981 -0.0914689302 4.43785676e-15 -0.110000014 -0.201978981 -0.0914689302 -0.408585131 -0.0320650339 -0.607402802 0.0709350109 -0.784888506 0.215111494 -0.929064989 0.392597198 -1.03206503 0.591414869 -1.09146893 0.798021019 -1.11000001 1 -1.09146893 1.20197892 -1.03206503 1.40858507 -0.929064989 1.6074028 -0.784888506 1.78488851 -0.607402802 1.92906499 -0.408585131 2.03206491 -0.201978981 2.09146881 3.30681641e-15 2.11000013 0.201978981 2.09146881 0.408585131 2.03206491 0.607402802 1.92906499 0.784888506 1.78488851 0.929064989 1.6074028 1.03206503 1.40858507 -100 0.803774238 -50 0.831806481 -1.09146893 0.803774357 -50 0.663612962 -1.03206515 0.607548714 -50 0.495419383 -0.929065287 0.411323071 -50 0.327225864 -0.784889042 0.215097487 -50 0.159032345 -0.607403636 0.0188719034 -50 -0.0091612339 -0.408586204 -0.17735374 -50 -0.177354217 -50 -0.345548272 -100 -0.177354693 -100 -0.373580575 -50 -0.569805622 -100 -0.569806337 -100 -0.7660321 -50 -0.794064403 -100 -0.962257862 -50 -1.01832247 -100 -1.15848374 -50 -1.24258041 -100 -1.35470939 -50 -1.4668386 -100 -1.55093527 -50 -1.69109654 -100 -1.74716115 -50 -1.91535449 -100 -1.94338679 -100 -2.13961267 6.80604755e-34 -1.93150592 -0 -2.13961267 -0.201980308 -0.373579264 -1.49011612e-06 -0.569804788 -1.05771928e-33 -0.777911782 -1.4752964e-32 -0.977784753 -4.87710264e-34 -1.1699028 1.42770651e-32 -1.35470891 1.60371741e-34 -1.53951478 3.6374814e-34 -1.73163295 -1.35585128e-33 -0.569804788 -100 0.018871069 -100 0.215096831 -100 0.411322653 -100 0.607548416 1.09146893 1.20197892 1.11000001 1 0 1 1.09146893 0.798021019 1.03206503 0.591414869 0.929064989 0.392597198 0.784888506 0.215111494 0.607402802 0.0709350109 0.408585131 -0.0320650339 0.201978981 -0.0914689302 4.43785676e-15 -0.110000014 -0.201978981 -0.0914689302 -0.408585131 -0.0320650339 -0.607402802 0.0709350109 -0.784888506 0.215111494 -0.929064989 0.392597198 -1.03206503 0.591414869 -1.09146893 0.798021019 -1.11000001 1 -1.09146893 1.20197892 -1.03206503 1.40858507 -0.929064989 1.6074028 -0.784888506 1.78488851 -0.607402802 1.92906499 -0.408585131 2.03206491 -0.201978981 2.09146881 3.30681641e-15 2.11000013 0.201978981 2.09146881 0.408585131 2.03206491 0.607402802 1.92906499 0.784888506 1.78488851 0.929064989 1.6074028 1.03206503 1.40858507 -100 0.803774238 0 0.831806481 100 0.753404975 0 0.663612962 100 0.522600651 0 0.495419383 100 0.393762529 0 0.327225864 100 0.26282829 0 0.159032345 100 0.129746437 0 -0.0091612339 100 -0.00553643703 100 -0.143075228 0 -0.177354693 100 -0.282926917 0 -0.345548272 100 -0.425150275 0 -0.569806337 100 -0.569806337 99.7980194 -0.7660321 0 -0.794064403 99.5914154 -0.962257862 0 -1.01832247 99.3925934 -1.15848374 0 -1.24258041 99.2151108 -1.35470939 0 -1.4668386 99.0709381 -1.55093527 0 -1.69109654 98.9679337 -1.74716115 0 -1.91535449 98.9085312 -1.94338679 -98.8899994 -2.13961267 98.8899994 -2.13961267 -98.9085312 -1.94338703 -98.9679337 -1.74716139 -99.0709381 -1.55093575 -99.2151108 -1.3547101 -99.392601 -1.15848446 -99.5914154 -0.962258935 -99.7980194 -0.766033411 -100 -0.569807768 -100 -0.569806337 -100 -0.373580575 -100 -0.177354693 -100 0.018871069 -100 0.215096831 -100 0.411322653 -100 0.607548416 </float_array>
          <technique_common>
            <accessor count="703" offset="0" source="#meshesQ0S-tex0-array" stride="2">
              <param name="S" type="float" />
              <param name="T" type="float" />
            </accessor>
          </technique_common>
        </source>
        <vertices id="meshesQ0S-vertices">
          <input semantic="POSITION" source="#meshesQ0S-positions" />
        </vertices>
        <polylist count="984" material="defaultMaterial">
          <input offset="0" semantic="VERTEX" source="#meshesQ0S-vertices" />
          <input offset="0" semantic="NORMAL" source="#meshesQ0S-normals" />
          <input offset="0" semantic="TEXCOORD" source="#meshesQ0S-tex0" set="0" />
          <vcount>3 3 3 3 3 3 3 3 3 3 3 3 3 3 3 3 3 3 3 3 3 3 3 3 3 3 3 3 3 3 3 3 3 3 3 3 3 3 3 3 3 3 3 3 3 3 3 3 3 3 3 3 3 3 3 3 3 3 3 3 3 3 3 3 3 3 3 3 3 3 3 3 3 3 3 3 3 3 3 3 3 3 3 3 3 3 3 3 3 3 3 3 3 3 3 3 3 3 3 3 3 3 3 3 3 3 3 3 3 3 3 3 3 3 3 3 3 3 3 3 3 3 3 3 3 3 3 3 3 3 3 3 3 3 3 3 3 3 3 3 3 3 3 3 3 3 3 3 3 3 3 3 3 3 3 3 3 3 3 3 3 3 3 3 3 3 3 3 3 3 3 3 3 3 3 3 3 3 3 3 3 3 3 3 3 3 3 3 3 3 3 3 3 3 3 3 3 3 3 3 3 3 3 3 3 3 3 3 3 3 3 3 3 3 3 3 3 3 3 3 3 3 3 3 3 3 3 3 3 3 3 3 3 3 3 3 3 3 3 3 3 3 3 3 3 3 3 3 3 3 3 3 3 3 3 3 3 3 3 3 3 3 3 3 3 3 3 3 3 3 3 3 3 3 3 3 3 3 3 3 3 3 3 3 3 3 3 3 3 3 3 3 3 3 3 3 3 3 3 3 3 3 3 3 3 3 3 3 3 3 3 3 3 3 3 3 3 3 3 3 3 3 3 3 3 3 3 3 3 3 3 3 3 3 3 3 3 3 3 3 3 3 3 3 3 3 3 3 3 3 3 3 3 3 3 3 3 3 3 3 3 3 3 3 3 3 3 3 3 3 3 3 3 3 3 3 3 3 3 3 3 3 3 3 3 3 3 3 3 3 3 3 3 3 3 3 3 3 3 3 3 3 3 3 3 3 3 3 3 3 3 3 3 3 3 3 3 3 3 3 3 3 3 3 3 3 3 3 3 3 3 3 3 3 3 3 3 3 3 3 3 3 3 3 3 3 3 3 3 3 3 3 3 3 3 3 3 3 3 3 3 3 3 3 3 3 3 3 3 3 3 3 3 3 3 3 3 3 3 3 3 3 3 3 3 3 3 3 3 3 3 3 3 3 3 3 3 3 3 3 3 3 3 3 3 3 3 3 3 3 3 3 3 3 3 3 3 3 3 3 3 3 3 3 3 3 3 3 3 3 3 3 3 3 3 3 3 3 3 3 3 3 3 3 3 3 3 3 3 3 3 3 3 3 3 3 3 3 3 3 3 3 3 3 3 3 3 3 3 3 3 3 3 3 3 3 3 3 3 3 3 3 3 3 3 3 3 3 3 3 3 3 3 3 3 3 3 3 3 3 3 3 3 3 3 3 3 3 3 3 3 3 3 3 3 3 3 3 3 3 3 3 3 3 3 3 3 3 3 3 3 3 3 3 3 3 3 3 3 3 3 3 3 3 3 3 3 3 3 3 3 3 3 3 3 3 3 3 3 3 3 3 3 3 3 3 3 3 3 3 3 3 3 3 3 3 3 3 3 3 3 3 3 3 3 3 3 3 3 3 3 3 3 3 3 3 3 3 3 3 3 3 3 3 3 3 3 3 3 3 3 3 3 3 3 3 3 3 3 3 3 3 3 3 3 3 3 3 3 3 3 3 3 3 3 3 3 3 3 3 3 3 3 3 3 3 3 3 3 3 3 3 3 3 3 3 3 3 3 3 3 3 3 3 3 3 3 3 3 3 3 3 3 3 3 3 3 3 3 3 3 3 3 3 3 3 3 3 3 3 3 3 3 3 3 3 3 3 3 3 3 3 3 3 3 3 3 3 3 3 3 3 3 3 3 3 3 3 3 3 3 3 3 3 3 3 3 3 3 3 3 3 3 3 3 3 3 3 3 3 3 3 3 3 3 3 3 3 3 3 3 3 3 3 3 3 3 3 3 3 3 3 3 3 3 3 3 3 3 3 3 3 3 3 3 3 3 3 3 3 3 3 3 3 3 3 3 3 3 3 3 3 3 3 3 3 3 3 3 3 3 3 3 3 3 3 3 3 3 3 3 3 3 3 3 3 3 3 3 3 3 3 3 3 3 3 3 3 3 3 3 3 3 3 3 3 3 3 3 3 3 3 3 3 3 3 3 3 3 3 3 3 3 3 3 3 3 3 3 3 3 3 3 3 3 3 3 3 3 3 3 3 3 3 3 3 3 3 3 3 3 3 3 3 </vcount>
          <p>0 1 2 2 1 3 2 3 4 4 3 5 4 5 6 6 5 7 6 7 8 8 7 9 8 9 10 10 9 11 10 11 12 12 11 13 12 13 14 14 13 15 14 15 16 16 15 17 17 15 18 17 18 19 19 18 20 19 20 21 21 20 22 21 22 23 1 24 3 3 24 25 3 25 5 5 25 26 5 26 7 7 26 27 7 27 9 9 27 28 9 28 11 11 28 29 11 29 13 13 29 30 13 30 15 15 30 31 15 31 32 32 33 15 15 33 18 33 22 18 18 22 20 21 23 34 34 23 35 34 35 36 36 35 37 36 37 38 38 37 39 38 39 40 40 39 41 40 41 42 42 41 43 42 43 44 44 45 42 42 45 40 45 46 40 40 46 38 46 47 38 38 47 36 47 48 36 36 48 34 48 49 34 34 49 21 49 19 21 50 51 52 52 51 53 52 53 54 54 53 55 54 55 56 56 55 57 56 57 58 58 57 59 58 59 60 60 59 61 60 61 62 62 61 63 62 63 64 64 63 65 64 65 66 66 65 67 66 67 68 51 69 53 53 69 70 53 70 55 55 70 71 55 71 57 57 71 72 57 72 59 59 72 73 59 73 61 61 73 74 61 74 63 63 74 75 63 75 65 65 75 76 65 76 77 65 77 78 78 77 79 78 79 80 80 79 81 80 81 82 82 81 83 83 81 84 83 84 85 85 84 86 85 86 87 87 86 88 87 88 89 89 88 90 89 90 91 91 90 92 91 92 93 93 92 94 94 92 95 95 92 90 95 90 96 96 90 88 96 88 97 97 88 86 97 86 98 98 86 84 98 84 99 99 84 81 99 81 79 82 67 80 80 67 78 65 78 67 100 101 102 102 101 103 102 103 104 104 105 102 102 105 106 102 106 100 100 106 107 107 106 108 108 106 109 108 109 110 110 109 111 110 111 112 112 111 113 113 111 114 113 114 115 115 114 116 116 114 117 116 117 118 118 117 119 118 119 120 120 119 121 121 119 122 121 122 123 123 122 124 123 124 125 125 124 126 125 126 127 105 128 106 106 128 109 128 129 109 109 129 111 129 130 111 111 130 114 130 131 114 114 131 117 131 132 117 117 132 119 132 133 119 119 133 134 119 134 122 122 134 126 122 126 124 125 127 135 135 127 136 135 136 137 137 136 138 137 138 139 139 138 140 139 140 141 141 140 142 141 142 143 143 142 144 143 144 145 145 146 143 143 146 141 146 147 141 141 147 139 147 148 139 139 148 137 148 149 137 137 149 135 149 150 135 135 150 125 150 123 125 151 152 153 153 152 154 153 154 155 155 154 156 155 156 157 157 156 158 152 159 154 154 159 160 154 160 161 162 163 164 164 163 165 164 165 166 167 168 166 166 168 164 168 169 164 164 169 170 164 170 171 169 172 170 170 172 173 170 173 174 173 172 175 175 172 176 175 176 177 177 176 178 177 178 179 179 178 180 179 180 181 181 180 182 181 182 183 183 182 184 183 184 185 178 186 180 180 186 182 186 184 182 185 187 183 183 187 188 183 188 189 189 188 190 189 190 191 187 192 188 188 192 193 188 193 190 190 193 194 190 194 195 193 196 194 194 196 197 194 197 198 196 199 197 197 199 157 197 157 200 199 155 157 154 201 156 179 202 177 177 203 175 175 204 173 183 189 181 181 189 205 181 205 179 206 207 208 208 207 209 208 209 210 210 209 211 211 209 212 211 212 213 213 212 214 213 214 215 215 214 216 215 216 217 217 216 218 217 218 219 219 218 220 219 220 221 221 220 222 221 222 223 223 222 224 223 224 225 225 224 226 225 226 227 227 226 228 227 228 229 229 228 230 229 230 231 231 230 232 231 232 233 233 232 234 233 234 235 235 234 236 235 236 237 237 236 238 237 238 239 239 238 240 239 240 241 241 240 242 241 242 243 243 242 244 243 244 245 245 244 246 245 246 247 247 246 248 248 246 249 248 249 250 250 249 251 250 251 252 252 251 253 252 253 254 254 253 255 254 255 256 256 255 257 256 257 258 207 206 259 259 206 260 259 260 216 216 260 218 260 261 218 218 261 220 261 222 220 222 262 224 224 262 263 224 263 226 226 263 264 226 264 228 228 264 265 228 265 230 230 265 266 230 266 232 232 266 267 232 267 234 234 267 268 234 268 236 236 268 269 236 269 238 238 269 270 238 270 240 240 270 271 240 271 242 242 271 272 242 272 244 244 272 273 244 273 246 246 273 274 246 274 249 249 274 251 263 275 264 264 275 265 265 275 276 276 275 277 276 277 278 278 277 279 278 279 280 280 279 281 280 281 282 282 281 283 282 283 284 284 283 285 284 285 286 286 285 287 286 287 288 288 287 289 288 289 290 290 289 291 290 291 292 292 291 293 292 293 294 294 293 295 294 295 253 253 295 255 279 296 281 281 296 283 283 296 285 285 296 297 285 297 287 287 297 289 297 298 289 289 298 291 291 298 293 293 298 299 293 299 295 295 299 257 295 257 255 300 301 258 258 301 254 258 254 256 301 252 254 247 302 245 245 302 243 303 304 302 302 304 305 302 305 243 243 305 241 303 306 304 304 306 307 304 307 308 308 307 309 308 309 239 239 309 237 307 306 310 310 306 311 310 311 312 312 311 313 312 313 314 314 313 315 314 315 316 316 315 317 316 317 318 318 317 319 318 319 320 320 319 321 320 321 322 322 321 323 322 323 324 324 323 325 324 325 326 326 325 327 326 327 328 328 327 329 328 329 215 215 329 213 313 311 315 315 311 330 315 330 317 317 330 331 317 331 319 319 331 321 331 332 321 321 332 323 333 327 332 332 327 325 332 325 323 211 213 333 333 213 329 333 329 327 212 209 207 216 214 259 259 214 207 214 212 207 219 221 334 334 221 223 334 223 335 335 223 225 335 225 336 336 225 227 336 227 337 337 227 229 337 229 338 338 229 231 338 231 339 339 231 233 339 233 340 340 233 235 340 235 341 341 235 237 341 237 309 328 215 217 217 219 342 342 219 334 342 334 343 343 334 335 343 335 344 344 335 336 344 336 345 345 336 337 345 337 346 346 337 338 346 338 347 347 338 339 347 339 348 348 339 340 348 340 349 349 340 341 349 341 350 350 341 309 350 309 307 326 328 342 342 328 217 326 342 343 324 326 343 324 343 344 266 265 276 322 324 344 322 344 345 267 266 278 278 266 276 320 322 345 320 345 346 268 267 280 280 267 278 268 280 282 318 320 346 318 346 347 268 282 269 269 282 284 269 284 270 270 284 286 270 286 271 271 286 288 271 288 272 272 288 290 272 290 273 273 290 292 273 292 274 274 292 294 274 294 251 251 294 253 318 347 316 316 347 348 316 348 314 314 348 349 314 349 312 312 349 350 312 350 310 310 350 307 308 239 241 305 304 308 308 241 305 351 352 353 353 352 354 353 354 355 355 354 356 355 356 357 357 356 358 357 358 359 360 361 359 359 361 362 359 362 363 363 362 364 363 364 365 365 364 366 365 366 367 367 366 368 367 368 369 370 371 360 360 371 372 360 372 361 361 372 373 361 373 374 374 373 375 374 375 364 364 375 366 371 370 376 376 370 377 376 377 378 378 377 379 378 379 380 380 379 381 380 381 382 382 381 383 382 383 384 384 383 385 384 385 386 386 385 387 386 387 388 388 387 389 388 389 390 390 389 391 391 389 392 391 392 393 393 392 394 394 392 395 394 395 396 396 395 397 396 397 398 398 397 385 398 385 383 379 399 381 381 399 383 383 399 398 398 399 400 398 400 396 390 401 388 388 401 402 388 402 403 403 402 404 403 404 405 405 404 406 405 406 407 407 406 408 407 408 409 409 408 410 409 410 411 411 410 412 411 412 413 413 412 414 413 414 415 415 414 416 415 416 417 417 416 418 401 419 402 402 419 420 402 420 404 404 420 421 404 421 422 422 421 423 422 423 424 420 423 421 422 424 425 425 424 426 425 426 427 427 426 428 427 428 429 429 428 430 429 430 410 410 430 412 428 426 431 431 426 432 431 432 433 433 432 434 433 434 435 435 434 436 435 436 437 432 438 434 434 438 436 435 437 439 439 437 440 439 440 441 439 442 443 443 444 445 417 446 447 448 449 450 450 451 368 367 452 453 453 454 455 455 456 353 457 458 447 447 458 459 447 459 415 415 459 413 460 461 445 445 461 462 445 462 463 463 462 433 463 433 435 455 353 355 355 357 464 464 357 363 464 363 365 357 359 363 374 364 362 453 455 464 464 455 355 453 464 365 372 371 465 465 371 376 465 376 466 466 376 467 466 467 468 468 467 469 468 469 470 470 469 471 470 471 472 472 471 473 472 473 405 405 473 403 373 372 474 474 372 465 474 465 475 475 465 466 475 466 476 476 466 468 476 468 477 477 468 470 477 470 478 478 470 472 478 472 407 407 472 405 375 373 479 479 373 474 479 474 480 480 474 475 480 475 481 481 475 476 481 476 482 482 476 477 482 477 483 483 477 478 483 478 409 409 478 407 453 365 367 366 375 484 484 375 479 484 479 485 485 479 480 485 480 486 486 480 481 486 481 487 487 481 482 487 482 488 488 482 483 488 483 411 411 483 409 362 361 374 467 376 378 450 368 484 484 368 366 450 484 485 469 467 380 380 467 378 469 380 382 448 450 485 448 485 486 471 469 382 471 382 384 448 486 458 458 486 487 458 487 459 459 487 488 459 488 413 413 488 411 387 385 397 387 397 392 392 397 395 473 471 384 473 384 386 458 457 448 389 387 392 403 473 386 403 386 388 417 447 415 404 422 406 406 422 489 406 489 408 408 489 429 408 429 410 414 412 490 490 412 430 490 430 491 491 430 428 491 428 431 416 414 461 461 414 490 461 490 462 462 490 491 462 491 433 433 491 431 427 429 489 427 489 425 425 489 422 461 460 416 443 445 463 439 443 463 439 463 435 492 103 493 493 103 101 493 101 494 493 494 495 495 494 496 495 496 497 497 496 498 497 498 499 499 498 500 499 500 501 501 500 502 501 502 503 503 502 504 503 504 505 505 504 506 505 506 507 507 506 508 508 506 509 508 509 510 510 509 511 511 509 512 511 512 513 513 512 514 513 514 515 515 514 516 515 516 517 517 516 518 517 518 519 519 518 520 519 520 521 521 520 522 521 522 523 523 522 524 524 522 525 524 525 526 504 527 506 506 527 509 527 528 509 509 528 529 509 529 512 512 529 530 512 530 514 514 530 531 514 531 516 516 531 532 516 532 518 518 532 533 518 533 520 520 533 534 520 534 522 522 534 525 505 507 503 503 507 535 503 535 501 501 535 536 501 536 499 499 536 537 499 537 497 497 537 538 497 538 495 495 538 492 495 492 493 539 540 541 541 540 542 541 542 543 543 544 541 541 544 545 541 545 546 546 547 541 541 547 548 541 548 549 549 550 541 541 550 551 541 551 552 552 553 541 541 553 554 541 554 555 555 556 541 541 556 557 541 557 558 558 559 541 541 559 560 541 560 561 561 562 541 541 562 563 541 563 564 564 565 541 541 565 566 541 566 567 567 568 541 541 568 569 541 569 570 570 571 541 541 571 539 572 51 573 573 51 50 573 50 574 573 574 575 575 574 576 575 576 577 577 576 578 577 578 579 579 578 580 579 580 581 581 580 582 581 582 583 583 582 584 583 584 585 585 584 586 585 586 587 587 586 588 588 586 589 588 589 590 590 589 591 591 589 592 591 592 593 593 592 594 593 594 595 595 594 596 595 596 597 597 596 598 597 598 599 599 598 600 599 600 601 601 600 602 601 602 603 603 602 604 604 602 605 604 605 606 584 607 586 586 607 589 607 608 589 589 608 609 589 609 592 592 609 610 592 610 594 594 610 611 594 611 596 596 611 612 596 612 598 598 612 613 598 613 600 600 613 614 600 614 602 602 614 605 608 615 609 585 587 583 583 587 616 583 616 581 581 616 617 581 617 579 579 617 618 579 618 577 577 618 619 577 619 575 575 619 572 575 572 573 620 621 622 622 621 623 622 623 624 624 625 622 622 625 626 622 626 627 627 628 622 622 628 629 622 629 630 630 631 622 622 631 632 622 632 633 633 634 622 622 634 635 622 635 636 636 637 622 622 637 638 622 638 639 639 640 622 622 640 641 622 641 642 642 643 622 622 643 644 622 644 645 645 646 622 622 646 647 622 647 648 648 649 622 622 649 650 622 650 651 651 652 622 622 652 620 653 1 654 654 1 0 654 0 655 654 655 656 656 655 657 656 657 658 658 657 659 658 659 660 660 659 661 660 661 662 662 661 663 662 663 664 664 663 665 664 665 666 664 666 667 667 666 668 667 668 669 669 668 670 669 670 671 671 670 672 671 672 673 671 673 674 674 673 675 674 675 676 676 675 677 676 677 678 678 677 679 678 679 680 680 679 681 680 681 682 682 681 683 682 683 684 684 683 685 684 685 686 686 685 687 686 688 684 684 688 689 684 689 682 682 689 690 682 690 680 680 690 691 680 691 678 678 691 692 678 692 676 676 692 693 676 693 674 674 693 694 674 694 671 671 694 695 671 695 696 696 697 671 671 697 669 697 698 669 669 698 667 667 698 664 664 698 699 664 699 662 662 699 700 662 700 660 660 700 701 660 701 658 658 701 702 658 702 656 656 702 653 656 653 654 </p>
        </polylist>
      </mesh>
    </geometry>
    <geometry id="meshesQ1S" name="meshes[1]" >
      <mesh>
        <source id="meshesQ1S-positions" name="meshesQ1S-positions">
          <float_array id="meshesQ1S-positions-array" count="486"> 1.11000001 -1000 -100 1.11000001 -1000 105 1.09146893 -1000.20197 -100 1.08559644 -1000.23145 2.5 1.03206503 -1000.40857 -100 1.00708437 -1000.4668 2.5 0.929064989 -1000.60742 -100 0.871976018 -1000.68683 2.5 0.784888506 -1000.78491 -100 0.686846256 -1000.87195 2.5 0.607402802 -1000.92908 -100 0.466777325 -1001.00708 2.5 0.408585131 -1001.03204 -100 0.231474057 -1001.08557 2.5 0.201978981 -1001.09149 -100 2.22044605e-16 -1001.10999 2.5 6.79678957e-17 -1001.10999 -100 -0.201978981 -1001.09149 -100 -0.231474057 -1001.08557 2.5 -0.408585131 -1001.03204 -100 -0.408585131 -1001.03204 2.5 -0.579994082 -1000.94641 2.5 -0.408585131 -1001.03204 105 -0.607402802 -1000.92908 105 1.09146893 -1000.20197 105 1.03206503 -1000.40857 105 0.929064989 -1000.60742 105 0.784888506 -1000.78491 105 0.607402802 -1000.92908 105 0.408585131 -1001.03204 105 0.201978981 -1001.09149 105 6.79678957e-17 -1001.10999 105 -0.201978981 -1001.09149 105 -0.737111688 -1000.8299 2.5 -0.784888506 -1000.78491 105 -0.871976018 -1000.68683 2.5 -0.929064989 -1000.60742 105 -0.978520036 -1000.52405 2.5 -1.03206503 -1000.40857 105 -1.05345356 -1000.34979 2.5 -1.09146893 -1000.20197 105 -1.09650123 -1000.17261 2.5 -1.11000001 -1000 105 -1.11000001 -1000 -100 -1.09146893 -1000.20197 -100 -1.03206503 -1000.40857 -100 -0.929064989 -1000.60742 -100 -0.784888506 -1000.78491 -100 -0.607402802 -1000.92908 -100 -1.09146893 -1000.20197 -100 -1.11000001 -1000 -100 0 -1000 -100 -1.09146893 -999.798035 -100 -1.03206503 -999.591431 -100 -0.929064989 -999.392578 -100 -0.784888506 -999.215088 -100 -0.607402802 -999.070923 -100 -0.408585131 -998.967957 -100 -0.201978981 -998.908508 -100 6.79678957e-17 -998.890015 -100 0.201978981 -998.908508 -100 0.408585131 -998.967957 -100 0.607402802 -999.070923 -100 0.784888506 -999.215088 -100 0.929064989 -999.392578 -100 1.03206503 -999.591431 -100 1.09146893 -999.798035 -100 1.11000001 -1000 -100 1.09146893 -1000.20197 -100 1.03206503 -1000.40857 -100 0.929064989 -1000.60742 -100 0.784888506 -1000.78491 -100 0.607402802 -1000.92908 -100 0.408585131 -1001.03204 -100 0.201978981 -1001.09149 -100 6.79678957e-17 -1001.10999 -100 -0.201978981 -1001.09149 -100 -0.408585131 -1001.03204 -100 -0.607402802 -1000.92908 -100 -0.784888506 -1000.78491 -100 -0.929064989 -1000.60742 -100 -1.03206503 -1000.40857 -100 1.09146893 -999.798035 105 1.09650123 -999.827393 2.5 1.09146893 -999.798035 -100 1.05345356 -999.650208 2.5 1.03206503 -999.591431 -100 0.978520036 -999.475952 2.5 0.929064989 -999.392578 -100 0.871976018 -999.313171 2.5 0.784888506 -999.215088 -100 0.737111688 -999.170105 2.5 0.607402802 -999.070923 -100 0.579994082 -999.053589 2.5 0.408585131 -998.967957 -100 0.408585131 -998.967957 2.5 0.231474057 -998.914429 2.5 0.408585131 -998.967957 105 0.201978981 -998.908508 105 -8.43769499e-15 -998.890015 2.5 6.79678957e-17 -998.890015 105 -0.201978981 -998.908508 105 -0.231474057 -998.914429 2.5 -0.408585131 -998.967957 105 -0.466777325 -998.99292 2.5 -0.607402802 -999.070923 105 -0.686846256 -999.128052 2.5 -0.784888506 -999.215088 105 -0.871976018 -999.313171 2.5 -0.929064989 -999.392578 105 -1.00708437 -999.533203 2.5 -1.03206503 -999.591431 105 -1.08559644 -999.768555 2.5 -1.09146893 -999.798035 105 -1.11000001 -1000 105 -1.09146893 -999.798035 -100 -1.11000001 -1000 -100 0.201978981 -998.908508 -100 6.79678957e-17 -998.890015 -100 -0.201978981 -998.908508 -100 -0.408585131 -998.967957 -100 -0.607402802 -999.070923 -100 -0.784888506 -999.215088 -100 -0.929064989 -999.392578 -100 -1.03206503 -999.591431 -100 0.607402802 -999.070923 105 0.784888506 -999.215088 105 0.929064989 -999.392578 105 1.03206503 -999.591431 105 -1.09146893 -999.798035 105 -1.11000001 -1000 105 0 -1000 105 -1.09146893 -1000.20197 105 -1.03206503 -1000.40857 105 -0.929064989 -1000.60742 105 -0.784888506 -1000.78491 105 -0.607402802 -1000.92908 105 -0.408585131 -1001.03204 105 -0.201978981 -1001.09149 105 6.79678957e-17 -1001.10999 105 0.201978981 -1001.09149 105 0.408585131 -1001.03204 105 0.607402802 -1000.92908 105 0.784888506 -1000.78491 105 0.929064989 -1000.60742 105 1.03206503 -1000.40857 105 1.09146893 -1000.20197 105 1.11000001 -1000 105 1.09146893 -999.798035 105 1.03206503 -999.591431 105 0.929064989 -999.392578 105 0.784888506 -999.215088 105 0.607402802 -999.070923 105 0.408585131 -998.967957 105 0.201978981 -998.908508 105 6.79678957e-17 -998.890015 105 -0.201978981 -998.908508 105 -0.408585131 -998.967957 105 -0.607402802 -999.070923 105 -0.784888506 -999.215088 105 -0.929064989 -999.392578 105 -1.03206503 -999.591431 105 </float_array>
          <technique_common>
            <accessor count="162" offset="0" source="#meshesQ1S-positions-array" stride="3">
              <param name="X" type="float" />
              <param name="Y" type="float" />
              <param name="Z" type="float" />
            </accessor>
          </technique_common>
        </source>
        <source id="meshesQ1S-normals" name="meshesQ1S-normals">
          <float_array id="meshesQ1S-normals-array" count="486"> 1 -2.12174659e-16 0 1 -2.12174659e-16 0 0.983305395 -0.181963056 0 0.978014886 -0.208535179 0 0.929788291 -0.368094712 0 0.907283247 -0.420520097 0 0.836995482 -0.54720974 0 0.785564005 -0.618780434 0 0.707106769 -0.707106769 0 0.618780434 -0.785564005 0 0.54720974 -0.836995482 0 0.420520097 -0.907283247 0 0.368094712 -0.929788291 0 0.208535179 -0.978014886 0 0.181963056 -0.983305395 0 -0 -1 -0 0 -1 0 -0.181963056 -0.983305395 0 -0.208535179 -0.978014886 0 -0.368094712 -0.929788291 0 -0.368094712 -0.929788291 0 -0.522517204 -0.852628767 0 -0.368094712 -0.929788291 0 -0.54720974 -0.836995482 0 0.983305395 -0.181963056 0 0.929788291 -0.368094712 0 0.836995482 -0.54720974 0 0.707106769 -0.707106769 0 0.54720974 -0.836995482 0 0.368094712 -0.929788291 0 0.181963056 -0.983305395 0 -0 -1 -0 -0.181963056 -0.983305395 0 -0.664064586 -0.74767518 0 -0.707106769 -0.707106769 0 -0.785564005 -0.618780434 0 -0.836995482 -0.54720974 0 -0.881549597 -0.472091407 0 -0.929788291 -0.368094712 0 -0.949057281 -0.315103561 0 -0.983305395 -0.181963056 0 -0.987838924 -0.155480742 0 -1 -2.12174659e-16 0 -1 -2.12174659e-16 0 -0.983305395 -0.181963056 0 -0.929788291 -0.368094712 0 -0.836995482 -0.54720974 0 -0.707106769 -0.707106769 0 -0.54720974 -0.836995482 0 -0 -0 -1 -0 -0 -1 -0 -0 -1 -0 -0 -1 -0 -0 -1 -0 -0 -1 -0 -0 -1 -0 -0 -1 -0 -0 -1 -0 -0 -1 -0 -0 -1 -0 -0 -1 -0 -0 -1 -0 -0 -1 -0 -0 -1 -0 -0 -1 -0 -0 -1 -0 -0 -1 -0 -0 -1 -0 -0 -1 -0 -0 -1 -0 -0 -1 -0 -0 -1 -0 -0 -1 -0 -0 -1 -0 -0 -1 -0 -0 -1 -0 -0 -1 -0 -0 -1 -0 -0 -1 -0 -0 -1 -0 -0 -1 -0 -0 -1 0.983305395 0.181963056 0 0.987838924 0.155480742 0 0.983305395 0.181963056 0 0.949057281 0.315103561 0 0.929788291 0.368094712 0 0.881549597 0.472091407 0 0.836995482 0.54720974 0 0.785564005 0.618780434 0 0.707106769 0.707106769 0 0.664064586 0.74767518 0 0.54720974 0.836995482 0 0.522517204 0.852628767 0 0.368094712 0.929788291 0 0.368094712 0.929788291 0 0.208535179 0.978014886 0 0.368094712 0.929788291 0 0.181963056 0.983305395 0 1.44844572e-13 1 0 0 1 0 -0.181963056 0.983305395 0 -0.208535179 0.978014886 0 -0.368094712 0.929788291 0 -0.420520097 0.907283247 0 -0.54720974 0.836995482 0 -0.618780434 0.785564005 0 -0.707106769 0.707106769 0 -0.785564005 0.618780434 0 -0.836995482 0.54720974 0 -0.907283247 0.420520097 0 -0.929788291 0.368094712 0 -0.978014886 0.208535179 0 -0.983305395 0.181963056 0 -1 -2.12174659e-16 0 -0.983305395 0.181963056 0 -1 -2.12174659e-16 0 0.181963056 0.983305395 0 7.2422286e-14 1 0 -0.181963056 0.983305395 0 -0.368094712 0.929788291 0 -0.54720974 0.836995482 0 -0.707106769 0.707106769 0 -0.836995482 0.54720974 0 -0.929788291 0.368094712 0 0.54720974 0.836995482 0 0.707106769 0.707106769 0 0.836995482 0.54720974 0 0.929788291 0.368094712 0 0 0 1 0 0 1 0 0 1 0 0 1 0 0 1 0 0 1 0 0 1 0 0 1 0 0 1 0 0 1 0 0 1 0 0 1 0 0 1 0 0 1 0 0 1 0 0 1 0 0 1 0 0 1 0 0 1 0 0 1 0 0 1 0 0 1 0 0 1 0 0 1 0 0 1 0 0 1 0 0 1 0 0 1 0 0 1 0 0 1 0 0 1 0 0 1 0 0 1 </float_array>
          <technique_common>
            <accessor count="162" offset="0" source="#meshesQ1S-normals-array" stride="3">
              <param name="X" type="float" />
              <param name="Y" type="float" />
              <param name="Z" type="float" />
            </accessor>
          </technique_common>
        </source>
        <source id="meshesQ1S-tex0" name="meshesQ1S-tex0">
          <float_array id="meshesQ1S-tex0-array" count="324"> 100 1 -105 1 100 1.19622576 -2.5 1.22425807 100 1.39245152 -2.5 1.44851613 100 1.58867741 -2.5 1.67277408 100 1.78490317 -2.5 1.89703226 100 1.98112893 -2.5 2.12129021 100 2.17735481 -2.5 2.34554815 100 2.37358046 -2.5 2.56980634 100 2.56980634 100 2.76603222 -2.5 2.79406452 100 2.96225786 -2.5 2.96225786 -2.5 3.13045144 -105 2.96225786 -105 3.15848374 -105 1.19622576 -105 1.39245152 -105 1.58867741 -105 1.78490317 -105 1.98112893 -105 2.17735481 -105 2.37358046 -105 2.56980634 -105 2.76603222 -2.5 3.29864502 -105 3.35470939 -2.5 3.4668386 -105 3.55093527 -2.5 3.63503194 -105 3.74716115 -2.5 3.80322552 -105 3.94338679 -2.5 3.9714191 -105 4.13961267 100 4.13961267 100 3.94338679 100 3.74716115 100 3.55093527 100 3.35470939 100 3.15848374 1.09146893 1.20197892 1.11000001 1 0 1 1.09146893 0.798021019 1.03206503 0.591414869 0.929064989 0.392597198 0.784888506 0.215111494 0.607402802 0.0709350109 0.408585131 -0.0320650339 0.201978981 -0.0914689302 -2.0696681e-17 -0.110000014 -0.201978981 -0.0914689302 -0.408585131 -0.0320650339 -0.607402802 0.0709350109 -0.784888506 0.215111494 -0.929064989 0.392597198 -1.03206503 0.591414869 -1.09146893 0.798021019 -1.11000001 1 -1.09146893 1.20197892 -1.03206503 1.40858507 -0.929064989 1.6074028 -0.784888506 1.78488851 -0.607402802 1.92906499 -0.408585131 2.03206491 -0.201978981 2.09146881 -1.31285303e-16 2.11000013 0.201978981 2.09146881 0.408585131 2.03206491 0.607402802 1.92906499 0.784888506 1.78488851 0.929064989 1.6074028 1.03206503 1.40858507 -105 0.803774238 -2.5 0.831806481 100 0.803774238 -2.5 0.663612962 100 0.607548416 -2.5 0.495419383 100 0.411322653 -2.5 0.327225864 100 0.215096831 -2.5 0.159032345 100 0.018871069 -2.5 -0.0091612339 100 -0.177354693 -2.5 -0.177354693 -2.5 -0.345548272 -105 -0.177354693 -105 -0.373580575 -2.5 -0.569806337 -105 -0.569806337 -105 -0.7660321 -2.5 -0.794064403 -105 -0.962257862 -2.5 -1.01832247 -105 -1.15848374 -2.5 -1.24258041 -105 -1.35470939 -2.5 -1.4668386 -105 -1.55093527 -2.5 -1.69109654 -105 -1.74716115 -2.5 -1.91535449 -105 -1.94338679 -105 -2.13961267 100 -1.94338679 100 -2.13961267 100 -0.373580575 100 -0.569806337 100 -0.7660321 100 -0.962257862 100 -1.15848374 100 -1.35470939 100 -1.55093527 100 -1.74716115 -105 0.018871069 -105 0.215096831 -105 0.411322653 -105 0.607548416 -1.09146893 0.798021019 -1.11000001 1 0 1 -1.09146893 1.20197892 -1.03206503 1.40858507 -0.929064989 1.6074028 -0.784888506 1.78488851 -0.607402802 1.92906499 -0.408585131 2.03206491 -0.201978981 2.09146881 2.0696681e-17 2.11000013 0.201978981 2.09146881 0.408585131 2.03206491 0.607402802 1.92906499 0.784888506 1.78488851 0.929064989 1.6074028 1.03206503 1.40858507 1.09146893 1.20197892 1.11000001 1 1.09146893 0.798021019 1.03206503 0.591414869 0.929064989 0.392597198 0.784888506 0.215111494 0.607402802 0.0709350109 0.408585131 -0.0320650339 0.201978981 -0.0914689302 1.31285303e-16 -0.110000014 -0.201978981 -0.0914689302 -0.408585131 -0.0320650339 -0.607402802 0.0709350109 -0.784888506 0.215111494 -0.929064989 0.392597198 -1.03206503 0.591414869 </float_array>
          <technique_common>
            <accessor count="162" offset="0" source="#meshesQ1S-tex0-array" stride="2">
              <param name="S" type="float" />
              <param name="T" type="float" />
            </accessor>
          </technique_common>
        </source>
        <vertices id="meshesQ1S-vertices">
          <input semantic="POSITION" source="#meshesQ1S-positions" />
        </vertices>
        <polylist count="188" material="defaultMaterial">
          <input offset="0" semantic="VERTEX" source="#meshesQ1S-vertices" />
          <input offset="0" semantic="NORMAL" source="#meshesQ1S-normals" />
          <input offset="0" semantic="TEXCOORD" source="#meshesQ1S-tex0" set="0" />
          <vcount>3 3 3 3 3 3 3 3 3 3 3 3 3 3 3 3 3 3 3 3 3 3 3 3 3 3 3 3 3 3 3 3 3 3 3 3 3 3 3 3 3 3 3 3 3 3 3 3 3 3 3 3 3 3 3 3 3 3 3 3 3 3 3 3 3 3 3 3 3 3 3 3 3 3 3 3 3 3 3 3 3 3 3 3 3 3 3 3 3 3 3 3 3 3 3 3 3 3 3 3 3 3 3 3 3 3 3 3 3 3 3 3 3 3 3 3 3 3 3 3 3 3 3 3 3 3 3 3 3 3 3 3 3 3 3 3 3 3 3 3 3 3 3 3 3 3 3 3 3 3 3 3 3 3 3 3 3 3 3 3 3 3 3 3 3 3 3 3 3 3 3 3 3 3 3 3 3 3 3 3 3 3 3 3 3 3 3 3 </vcount>
          <p>0 1 2 2 1 3 2 3 4 4 3 5 4 5 6 6 5 7 6 7 8 8 7 9 8 9 10 10 9 11 10 11 12 12 11 13 12 13 14 14 13 15 14 15 16 16 15 17 17 15 18 17 18 19 19 18 20 19 20 21 21 20 22 21 22 23 1 24 3 3 24 25 3 25 5 5 25 26 5 26 7 7 26 27 7 27 9 9 27 28 9 28 11 11 28 29 11 29 13 13 29 30 13 30 15 15 30 31 15 31 32 15 32 18 18 32 22 18 22 20 21 23 33 33 23 34 33 34 35 35 34 36 35 36 37 37 36 38 37 38 39 39 38 40 39 40 41 41 40 42 41 42 43 43 44 41 41 44 39 44 45 39 39 45 37 45 46 37 37 46 35 46 47 35 35 47 33 47 48 33 33 48 21 48 19 21 49 50 51 51 50 52 51 52 53 53 54 51 51 54 55 51 55 56 56 57 51 51 57 58 51 58 59 59 60 51 51 60 61 51 61 62 62 63 51 51 63 64 51 64 65 65 66 51 51 66 67 51 67 68 68 69 51 51 69 70 51 70 71 71 72 51 51 72 73 51 73 74 74 75 51 51 75 76 51 76 77 77 78 51 51 78 79 51 79 80 80 81 51 51 81 49 82 1 83 83 1 0 83 0 84 83 84 85 85 84 86 85 86 87 87 86 88 87 88 89 89 88 90 89 90 91 91 90 92 91 92 93 93 92 94 93 94 95 95 94 96 95 96 97 97 96 98 98 96 99 98 99 100 100 99 101 101 99 102 101 102 103 103 102 104 103 104 105 105 104 106 105 106 107 107 106 108 107 108 109 109 108 110 109 110 111 111 110 112 111 112 113 113 112 114 114 112 115 114 115 116 94 117 96 96 117 99 117 118 99 99 118 119 99 119 102 102 119 120 102 120 104 104 120 121 104 121 106 106 121 122 106 122 108 108 122 123 108 123 110 110 123 124 110 124 112 112 124 115 95 97 93 93 97 125 93 125 91 91 125 126 91 126 89 89 126 127 89 127 87 87 127 128 87 128 85 85 128 82 85 82 83 129 130 131 131 130 132 131 132 133 133 134 131 131 134 135 131 135 136 136 137 131 131 137 138 131 138 139 139 140 131 131 140 141 131 141 142 142 143 131 131 143 144 131 144 145 145 146 131 131 146 147 131 147 148 148 149 131 131 149 150 131 150 151 151 152 131 131 152 153 131 153 154 154 155 131 131 155 156 131 156 157 157 158 131 131 158 159 131 159 160 160 161 131 131 161 129 </p>
        </polylist>
      </mesh>
    </geometry>
  </library_geometries>
  <library_controllers>
  </library_controllers>
  <library_visual_scenes>
    <visual_scene id="FBX_Root" name="FBX_Root">
      <node id="pre-qual_simWv2" name="pre-qual_sim v2" type="NODE">
        <matrix sid="matrix">1 0 0 0 0 1 0 0 0 0 1 0 0 0 0 1</matrix>
        <node id="Body3" name="Body3" type="NODE">
          <matrix sid="matrix">10 0 0 0 0 10 0 0 0 0 10 0 0 0 0 1</matrix>
          <instance_geometry url="#meshesQ0S">
            <bind_material>
              <technique_common>
                <instance_material symbol="defaultMaterial" target="#PaintW-WEnamelWGlossyWeGreenf">
                  <bind_vertex_input semantic="CHANNEL0" input_semantic="TEXCOORD" input_set="0"/>
                </instance_material>
              </technique_common>
            </bind_material>
          </instance_geometry>
        </node>
        <node id="Body4" name="Body4" type="NODE">
          <matrix sid="matrix">10 0 0 0 0 10 0 0 0 0 10 0 0 0 0 1</matrix>
          <instance_geometry url="#meshesQ1S">
            <bind_material>
              <technique_common>
                <instance_material symbol="defaultMaterial" target="#PaintW-WEnamelWGlossyWeGreenf_1">
                  <bind_vertex_input semantic="CHANNEL0" input_semantic="TEXCOORD" input_set="0"/>
                </instance_material>
              </technique_common>
            </bind_material>
          </instance_geometry>
        </node>
      </node>
    </visual_scene>
  </library_visual_scenes>
  <scene>
    <instance_visual_scene url="#FBX_Root" />
  </scene>
</COLLADA>
